<?xml version="1.0" encoding="UTF-8"?>
<svg id="katman_2" data-name="katman 2" xmlns="http://www.w3.org/2000/svg" viewBox="0 0 177 45">
  <defs>
    <style>
      .cls-1 {
        fill: #f5831f;
      }

      .cls-1, .cls-2 {
        stroke-width: 0px;
      }

      .cls-2 {
        fill: #fff;
      }
    </style>
  </defs>
  <g id="katman_1" data-name="katman 1">
    <g>
      <rect class="cls-2" width="177" height="45"/>
      <path class="cls-1" d="M98.01,26.51h0c0,7.64-6.12,13.86-13.57,13.86s-13.57-6.21-13.57-13.86v-11.75s6.5,1.62,6.5,8.5v3.25c0,4.2,3.15,7.55,7.07,7.55s7.07-3.34,7.07-7.55v-6.78.1c.29-5.73,5.16-7.55,6.4-8.22h.1v14.91h0ZM63.13,12.75c1.82,0,3.54.29,5.06.96v7.26c-1.34-1.15-3.15-1.82-5.06-1.82-4.3,0-7.74,3.34-7.74,7.55v13.67h-6.5V15.33s2.68.1,4.4,1.34c2.48-2.48,6.02-3.92,9.84-3.92M31.98,34.16c-4.3,0-7.84-3.44-7.84-7.64s3.54-7.64,7.84-7.64,7.84,3.44,7.84,7.64-3.54,7.64-7.84,7.64M31.98,12.75c-7.84,0-14.14,6.21-14.14,13.76s6.31,13.76,14.14,13.76c3.25,0,6.21-1.05,8.6-2.87,1.43,2.39,5.54,2.87,5.54,2.87v-13.76c0-7.55-6.31-13.76-14.14-13.76M145.02,34.16c-4.3,0-7.84-3.44-7.84-7.64s3.54-7.64,7.84-7.64,7.84,3.44,7.84,7.64-3.54,7.64-7.84,7.64M145.02,12.75c-7.84,0-14.14,6.21-14.14,13.76s6.31,13.76,14.14,13.76c3.25,0,6.21-1.05,8.6-2.87,1.43,2.39,5.54,2.87,5.54,2.87v-13.76c0-7.55-6.31-13.76-14.14-13.76M115.02,34.16c-4.3,0-7.84-3.44-7.84-7.64s3.54-7.64,7.84-7.64,7.84,3.44,7.84,7.64c.1,4.2-3.44,7.64-7.84,7.64M115.02,12.75c-2.87,0-5.54.86-7.84,2.29v-2.2c-.29-5.73-4.97-7.55-6.21-8.22h-.1v35.74s4.2-.48,5.83-2.77c2.39,1.62,5.26,2.68,8.31,2.68,7.84,0,14.14-6.21,14.14-13.76.1-7.55-6.31-13.76-14.14-13.76"/>
    </g>
  </g>
</svg>