<?xml version="1.0" encoding="UTF-8"?>
<svg id="katman_2" data-name="katman 2" xmlns="http://www.w3.org/2000/svg" viewBox="0 0 177 45">
  <defs>
    <style>
      .cls-1 {
        fill: #000;
      }

      .cls-1, .cls-2, .cls-3, .cls-4 {
        stroke-width: 0px;
      }

      .cls-2 {
        fill: #f03;
      }

      .cls-3 {
        fill: #fc3;
      }

      .cls-4 {
        fill: #fff;
      }
    </style>
  </defs>
  <g id="katman_1" data-name="katman 1">
    <g>
      <rect class="cls-4" width="177" height="45"/>
      <g>
        <path class="cls-1" d="M78.77,8.38h5.87c.06,0,.06.06.06.06v25.34c0,.06-.06.06-.06.06h-5.87c-.06,0-.06-.06-.06-.06V8.5c0-.06.06-.12.06-.12Z"/>
        <path class="cls-1" d="M76.87,8.38c.06,0,.06.06.06.12l-7.71,12.52c-.06.12-.06.24,0,.36l7.71,12.4c.06.06,0,.12,0,.12h-7.24c-.06,0-.12-.06-.18-.12l-4.69-7.65c-.06-.06-.12-.06-.12,0l-4.39,7.65c-.06.06-.12.12-.18.12h-6.82c-.06,0-.12,0-.06-.12l8.01-13.05c.06-.12.06-.3,0-.42l-7-11.81c0-.06,0-.12.06-.12h7c.06,0,.12.06.12.12l4.21,7.12c.06.06.12.06.18,0l4.33-7.12c.06-.06.06-.12.18-.12h6.53Z"/>
        <polygon class="cls-3" points="113.84 21.37 126.83 1.14 147.83 33.89 133.53 33.89 125.52 21.37 113.84 21.37"/>
        <path class="cls-1" d="M51.12,8.38h-5.46c-.06,0-.12.06-.18.12l-16.32,25.34v.06h6.65c.06,0,.12,0,.12-.06l2.2-3.44q.06-.06.12-.06h6.94c.06,0,.06.06.06.06v3.38c0,.06,0,.12.06.12h5.81c.06,0,.06-.06.06-.12V8.5c0-.06,0-.12-.06-.12ZM45.36,25.29h0l-4.33.06s-.06,0,0-.06l4.57-7.3c0-.06.06,0,.06,0,0,0-.3,7.3-.3,7.3Z"/>
        <path class="cls-1" d="M88.14,33.89h7.65c.95,0,1.96-.18,2.91-.47,3.56-1.13,5.4-4.63,5.4-7.65,0-4.81-3.74-6.47-8.19-8.37-.77-.36-1.72-.77-1.72-1.84s1.01-1.6,2.14-1.6h6.05c.06,0,.06-.06.06-.06v-5.52c0-.06-.06-.06-.06-.06h-6.35c-5.28,0-8.43,3.14-8.43,7.54,0,3.86,2.43,5.7,5.99,7.12,2.49,1.01,4.09,1.42,4.09,3.44,0,1.07-.65,2.08-1.96,2.08h-7.65c-.06,0-.06.06-.06.06v5.34s.12,0,.12,0Z"/>
        <path class="cls-1" d="M107.43,8.26c-1.19,0-2.14.95-2.14,2.14s.95,2.14,2.14,2.14,2.14-.95,2.14-2.14-.95-2.14-2.14-2.14ZM107.43,12.29c-1.07,0-1.9-.89-1.9-1.9,0-1.07.89-1.9,1.9-1.9,1.07,0,1.9.89,1.9,1.9s-.83,1.9-1.9,1.9Z"/>
        <path class="cls-1" d="M108.44,11.58l-.47-1.13c.3-.06.47-.36.47-.65,0-.24-.12-.42-.24-.53-.18-.12-.36-.18-.59-.18h-.95v2.49h.3v-1.07h.71l.47,1.07h.3ZM106.95,10.28v-.89h.59c.12,0,.24,0,.36.06s.18.18.18.36c0,.12-.06.24-.12.3-.12.12-.24.12-.42.12h-.59v.06Z"/>
        <path class="cls-1" d="M34.27,43.39c-.71.36-1.25.47-1.96.47-1.96,0-2.97-1.25-2.97-2.55s1.13-2.55,3.09-2.55c.71,0,1.36.12,1.84.42v1.13c-.53-.3-1.13-.53-1.78-.53-1.07,0-1.84.65-1.84,1.48,0,.89.77,1.54,1.84,1.54.65,0,1.13-.18,1.84-.53v1.13h-.06Z"/>
        <path class="cls-1" d="M41.63,43.86c-1.9,0-2.91-1.31-2.91-2.55s1.01-2.55,2.91-2.55,2.91,1.36,2.91,2.55c0,1.31-1.07,2.55-2.91,2.55ZM41.63,39.83c-.95,0-1.6.59-1.6,1.48s.65,1.48,1.6,1.48,1.6-.59,1.6-1.48-.65-1.48-1.6-1.48Z"/>
        <path class="cls-1" d="M53.32,38.88h1.13v4.98h-1.25v-3.09l-1.36,1.54h-.18l-1.36-1.54v3.09h-1.25v-4.98h1.13l1.66,1.84s1.48-1.84,1.48-1.84Z"/>
        <path class="cls-1" d="M63.82,38.88h1.13v4.98h-1.25v-3.09l-1.36,1.54h-.18l-1.36-1.54v3.09h-1.36v-4.98h1.13l1.66,1.84s1.6-1.84,1.6-1.84Z"/>
        <path class="cls-1" d="M74.62,38.88v2.79c0,1.66-1.13,2.2-2.55,2.2s-2.55-.65-2.55-2.2v-2.85h1.25v2.85c0,.71.53,1.13,1.25,1.13.65,0,1.31-.36,1.31-1.25v-2.79h1.31v.12Z"/>
        <path class="cls-1" d="M84.47,43.8h-1.07l-2.85-3.2v3.2h-1.25v-4.98h1.19l2.73,3.03v-3.03h1.25s0,4.98,0,4.98Z"/>
        <path class="cls-1" d="M90.58,43.8h-1.25v-4.98h1.25v4.98Z"/>
        <path class="cls-1" d="M99.71,43.39c-.71.36-1.25.47-2.02.47-1.96,0-2.97-1.25-2.97-2.55s1.13-2.55,3.09-2.55c.71,0,1.36.12,1.84.42v1.13c-.53-.3-1.13-.53-1.78-.53-1.07,0-1.84.65-1.84,1.48,0,.89.77,1.54,1.84,1.54.65,0,1.13-.18,1.84-.53,0,0,0,1.13,0,1.13Z"/>
        <path class="cls-1" d="M108.85,43.8h-1.36l-.42-1.01h-2.25l-.36,1.01h-1.36l2.08-4.98h1.48l2.2,4.98ZM105.88,40l-.77,1.9h1.54l-.77-1.9Z"/>
        <path class="cls-1" d="M116.33,39.77h-1.84v4.03h-1.25v-4.03h-1.84v-.89h4.98v.89h-.06Z"/>
        <path class="cls-1" d="M121.49,43.8h-1.25v-4.98h1.25v4.98Z"/>
        <path class="cls-1" d="M128.25,43.86c-1.9,0-2.91-1.31-2.91-2.55s1.01-2.55,2.91-2.55,2.91,1.36,2.91,2.55c0,1.31-1.07,2.55-2.91,2.55ZM128.25,39.83c-.95,0-1.6.59-1.6,1.48s.65,1.48,1.6,1.48,1.6-.59,1.6-1.48-.65-1.48-1.6-1.48Z"/>
        <path class="cls-1" d="M140.12,43.8h-1.07l-2.85-3.2v3.2h-1.25v-4.98h1.19l2.73,3.03v-3.03h1.25v4.98Z"/>
        <path class="cls-1" d="M147.54,40.12c-.71-.3-1.19-.42-1.6-.42-.47,0-.77.18-.77.42,0,.77,2.61.53,2.61,2.25,0,.95-.83,1.48-1.96,1.48-.89,0-1.31-.24-1.84-.47v-1.07c.71.47,1.19.65,1.72.65.47,0,.77-.18.77-.47,0-.83-2.61-.53-2.61-2.31,0-.83.77-1.42,1.96-1.42.59,0,1.07.12,1.72.36v1.01h0Z"/>
        <polygon class="cls-1" points="125.52 21.37 123.39 21.37 131.46 33.89 133.53 33.89 125.52 21.37"/>
        <polygon class="cls-2" points="123.39 21.37 131.46 33.89 105.83 33.89 113.84 21.37 123.39 21.37"/>
      </g>
    </g>
  </g>
</svg>