<?xml version="1.0" encoding="UTF-8"?>
<svg id="katman_2" data-name="katman 2" xmlns="http://www.w3.org/2000/svg" viewBox="0 0 177 45">
  <defs>
    <style>
      .cls-1 {
        fill: #000;
      }

      .cls-1, .cls-2, .cls-3 {
        stroke-width: 0px;
      }

      .cls-2 {
        fill: #cc092f;
      }

      .cls-3 {
        fill: #fff;
      }
    </style>
  </defs>
  <g id="katman_1" data-name="katman 1">
    <g>
      <rect class="cls-3" width="177" height="45"/>
      <g>
        <path id="path4" class="cls-1" d="M158.37,18.09c-.63,0-1.15-.51-1.15-1.14s.52-1.15,1.15-1.15,1.15.52,1.15,1.15-.52,1.14-1.15,1.14M158.37,15.52c-.79,0-1.43.64-1.43,1.43s.64,1.43,1.43,1.43,1.43-.64,1.43-1.43-.64-1.43-1.43-1.43"/>
        <path id="path6" class="cls-1" d="M158.47,16.89h-.3s0-.36,0-.36h.3c.11,0,.2.07.2.18,0,.11-.08.18-.2.18M158.96,16.69c0-.25-.18-.43-.46-.43h-.64s.02,1.36.02,1.36h.29v-.48s.2,0,.2,0l.27.48h.33s-.31-.52-.31-.52c.14-.04.29-.17.29-.41"/>
        <path id="path10" class="cls-1" d="M47.9,26.48h-3.57v-8.24h3.48c.94,0,1.52.61,1.52,1.43s-.59,1.41-1.52,1.41h-3.97v2.38h4.07c1.09,0,1.68.7,1.68,1.52,0,.94-.62,1.5-1.68,1.5M49.91,22.17c1.23-.25,2.25-1.35,2.25-2.99,0-1.74-1.27-3.32-3.75-3.32h-6.85v13.02h7.07c2.48,0,3.79-1.56,3.79-3.51,0-1.64-1.11-2.99-2.5-3.2"/>
        <path id="path12" class="cls-1" d="M60.53,21.81h-3v2.44h2.12l2.56,4.63h3.18l-2.93-4.96c1.41-.33,2.85-1.56,2.85-3.87M65.31,20.06c0-2.42-1.66-4.2-4.37-4.2h-6.09v13.02h2.77v-10.58h2.91c1.11,0,1.95.66,1.95,1.76s-.84,1.76-1.95,1.76"/>
        <path id="path14" class="cls-1" d="M86.39,24.24l2.03-5.6,2.03,5.6h-4.06ZM86.68,15.86l-5.04,13.02h3.16l.82-2.21h5.58l.8,2.21h3.16l-5.02-13.02h-3.48Z"/>
        <path id="path16" class="cls-1" d="M102.7,26.44h-2.36v-8.14h2.36c2.67,0,4.08,1.78,4.08,4.08s-1.5,4.06-4.08,4.06M102.7,15.86h-5.14v13.02h5.14c4.08,0,6.91-2.58,6.91-6.5s-2.83-6.52-6.91-6.52"/>
        <path id="path18" class="cls-1" d="M151.62,15.86l-3.42,5.52-3.42-5.52h-3.06v13.03h2.77v-8.51l2.99,4.54c.34.52,1.1.52,1.44,0l2.99-4.54v8.51h2.77v-13.03h-3.07Z"/>
        <path id="path20" class="cls-1" d="M74.1,26.58c-2.31,0-4.17-1.87-4.17-4.17s1.87-4.17,4.17-4.17,4.17,1.87,4.17,4.17-1.87,4.17-4.17,4.17M74.1,15.54c-3.79,0-6.87,3.07-6.87,6.87s3.07,6.87,6.87,6.87,6.87-3.07,6.87-6.87-3.07-6.87-6.87-6.87"/>
        <path id="path22" class="cls-1" d="M122.09,24.42c-.71,1.28-2.08,2.15-3.65,2.15-2.3,0-4.17-1.87-4.17-4.17s1.87-4.17,4.17-4.17c1.56,0,2.92.86,3.63,2.12l1.95-1.95c-1.25-1.74-3.28-2.87-5.58-2.87-3.79,0-6.87,3.07-6.87,6.87s3.07,6.87,6.87,6.87c2.31,0,4.36-1.14,5.6-2.9l-1.95-1.95Z"/>
        <g id="use8">
          <path id="path20-2" data-name="path20" class="cls-1" d="M132.9,26.58c-2.31,0-4.17-1.87-4.17-4.17s1.87-4.17,4.17-4.17,4.17,1.87,4.17,4.17-1.87,4.17-4.17,4.17M132.9,15.54c-3.79,0-6.87,3.07-6.87,6.87s3.07,6.87,6.87,6.87,6.87-3.07,6.87-6.87-3.07-6.87-6.87-6.87"/>
        </g>
        <circle id="ellipse24" class="cls-2" cx="26.87" cy="22.5" r="9.67"/>
        <path id="path26" class="cls-3" d="M35.39,25.11c-1.11-.44-2.12-.29-3.13.32,0,0-.37.23-.48.3-.47.3-.92.58-1.35.58s-.81-.11-.98-.9c-.27-1.23-.91-4.27-1.2-5.77-.17-.88-.26-1.36-.35-1.68-.17-.57-.47-.88-.9-.93,0,0-.07,0-.12,0s-.13.01-.13.01c-.43.05-.73.36-.9.93-.09.32-.19.8-.35,1.68-.28,1.5-.93,4.54-1.2,5.77-.17.79-.57.9-.98.9s-.87-.28-1.35-.58c-.11-.07-.48-.3-.48-.3-1.01-.62-2.03-.76-3.13-.32-.24.1-.47.2-.7.31.15.48.34.95.57,1.4.24-.12.5-.24.76-.32.38-.11.76-.12,1.14,0,.36.12.69.34,1.01.54.61.38,1.3.82,2.18.82,1.3,0,2.22-.78,2.51-2.13.23-1.05.73-3.4,1.05-5.01,0,0,.83,3.96,1.05,5.01.29,1.36,1.21,2.13,2.51,2.13.88,0,1.57-.43,2.18-.82.32-.2.65-.42,1.01-.54.37-.13.76-.12,1.14,0,.26.08.52.2.76.32.22-.44.41-.92.57-1.4-.22-.11-.46-.21-.7-.31"/>
      </g>
    </g>
  </g>
</svg>