<?xml version="1.0" encoding="UTF-8"?>
<svg id="katman_2" data-name="katman 2" xmlns="http://www.w3.org/2000/svg" viewBox="0 0 177 45">
  <defs>
    <style>
      .cls-1 {
        fill: #007db8;
      }

      .cls-1, .cls-2 {
        stroke-width: 0px;
      }

      .cls-2 {
        fill: #fff;
      }
    </style>
  </defs>
  <g id="katman_1" data-name="katman 1">
    <g>
      <rect class="cls-2" width="177" height="45"/>
      <g id="g3464">
        <path id="path3466" class="cls-1" d="M49.79,22.48c0-4.68-3.11-7.34-7.5-7.34h-2.69v14.68h2.61c4.09,0,7.58-2.22,7.58-7.34M97.65,27.76l-19.82,15.61-18.12-14.26c-2.61,6.28-8.93,10.64-16.21,10.64h-15.51V5.2h15.51c8.13,0,13.99,5.17,16.2,10.68L77.83,1.63l6.71,5.28-16.61,13.05,3.19,2.5,16.6-13.05,6.72,5.27-16.61,13.07,3.19,2.5,16.62-13.07V5.2h12.05v24.46h12.02v10.12h-24.07v-12.03ZM136.99,29.67h12.01v10.12h-24.08V5.2h12.06v24.46Z"/>
      </g>
    </g>
  </g>
</svg>