<?xml version="1.0" encoding="UTF-8"?>
<svg id="katman_2" data-name="katman 2" xmlns="http://www.w3.org/2000/svg" viewBox="0 0 177 45">
  <defs>
    <style>
      .cls-1 {
        fill: #ee2e24;
      }

      .cls-1, .cls-2, .cls-3 {
        stroke-width: 0px;
      }

      .cls-2 {
        fill: #231f20;
      }

      .cls-3 {
        fill: #fff;
      }
    </style>
  </defs>
  <g id="katman_1" data-name="katman 1">
    <g>
      <rect class="cls-3" width="177" height="45"/>
      <g>
        <path class="cls-2" d="M109.87,30.59h-3.96V14.42h12.75s2.33-.08,3.82,1.39c0,0,1.52,1.27,1.52,4.36v10.42h-3.95v-10.69s.05-1.09-.32-1.47c0,0-.33-.42-.95-.42h-8.9v12.58s0,0,0,0ZM126.74,30.59V14.43h15.91v3.59h-11.97s0,2.75,0,2.75h8.31v3.47h-8.31v2.76h12.04v3.6h-15.99,0ZM99,30.59V14.43h3.95v16.17h-3.95ZM149.35,17.01v-.54.54ZM148.33,30.59v-12.57h-3.73v-3.59h14.82v3.59h-7.14v12.57h-3.95ZM86.98,17.01v-.54.54ZM85.96,30.59v-12.57h-3.73v-3.59h14.82v3.59h-7.14v12.57h-3.95ZM74.06,20.76c.96,0,1.54,0,1.77-.14,0,0,.41-.22.41-.71v-1.06c0-.48-.41-.71-.41-.71-.31-.17-.83-.14-2.07-.14h-7.69v2.74h8.16-.18ZM76.19,30.59v-5.52c0-.5-.41-.7-.41-.7-.19-.12-.75-.14-1.57-.14h.19-8.31v6.36h-3.95V14.43h12.32c2.13,0,3.6.32,4.61,1.3.99,1.01,1.13,2.34,1.13,3.72v1.15c.01,1.17-.6,2.24-1.34,2.86l.15.07c.3.15.46.35.46.35.56.71.55,1.33.55,2.08v4.63h-3.83ZM16.5,14.43v16.16h3.95v-6.35h11.96v-3.47h-11.96v-2.75h13.9v-3.59h-17.85,0Z"/>
        <path class="cls-2" d="M158.09,27.73v.74h.69c.19,0,.37-.05.4-.33.04-.37-.23-.41-.4-.41h-.69ZM157.81,27.49h.96c.33,0,.66.06.69.55.01.28-.07.38-.28.54.22.14.23.18.26.55.02.28-.02.33.1.52h-.33l-.05-.27c-.05-.26.08-.65-.37-.65h-.71v.92h-.28v-2.15h0ZM158.54,26.89c-.95,0-1.73.78-1.72,1.73,0,.95.77,1.73,1.73,1.72.95,0,1.73-.77,1.73-1.73s-.78-1.73-1.73-1.73M158.55,30.58c-1.08,0-1.95-.87-1.95-1.95,0-1.08.87-1.95,1.95-1.95s1.95.88,1.95,1.95-.88,1.95-1.95,1.95"/>
        <path class="cls-1" d="M56.71,30.75c1.28-.44,2.28-1.91,2.52-3.77v-.54h-6.57v4.31h4.05ZM59.23,18.55v-.49c-.25-1.94-1.32-3.46-2.69-3.82h-3.88v4.31h6.57ZM36.09,26.45v.53c.24,1.86,1.24,3.34,2.52,3.77h4.03v-4.31h-6.55ZM38.78,14.25c-1.36.36-2.44,1.89-2.69,3.83v.48h6.55v-4.31h-3.86,0ZM59.23,20.35h-6.57v4.31h6.57v-4.31ZM44.44,30.76h6.43v-4.31h-6.43v4.31ZM50.87,14.24h-6.43v4.31h6.43v-4.31ZM36.1,24.65h6.55v-4.31h-6.55v4.31h0Z"/>
      </g>
    </g>
  </g>
</svg>