<?xml version="1.0" encoding="UTF-8"?>
<svg id="katman_2" data-name="katman 2" xmlns="http://www.w3.org/2000/svg" viewBox="0 0 177 45">
  <defs>
    <style>
      .cls-1 {
        fill: #040404;
      }

      .cls-1, .cls-2, .cls-3 {
        stroke-width: 0px;
      }

      .cls-2 {
        fill: #00b188;
      }

      .cls-3 {
        fill: #fff;
      }
    </style>
  </defs>
  <g id="katman_1" data-name="katman 1">
    <g>
      <rect class="cls-3" width="177" height="45"/>
      <g>
        <path class="cls-2" d="M70.6,9.33h-29.91V3.78h29.91v5.54ZM72.74,1.64h-34.18v9.82h34.18V1.64Z"/>
        <path class="cls-1" d="M40.69,27.69h-2.14v-9.82h2.14v3.88h3.82v-3.88h2.14v9.82h-2.14v-4.07h-3.82v4.07"/>
        <path class="cls-1" d="M49.9,23.36h2.55c-.05-.72-.35-1.23-1.18-1.23-.63,0-1.18.27-1.37,1.23ZM51.52,27.82c-2.17,0-3.64-1.37-3.64-3.61s1.45-3.69,3.36-3.69c2.09,0,3.13,1.4,3.13,3.49v.79h-4.46c.25,1.08,1.1,1.37,1.95,1.37.74,0,1.27-.16,1.93-.57h.08v1.62c-.57.41-1.37.61-2.34.61"/>
        <path class="cls-1" d="M59.93,23.57l-1.1,4.11h-1.87l-2.14-6.91v-.08h2.04l1.16,4.13,1.1-4.13h1.67l1.12,4.13,1.18-4.13h1.96v.08l-2.14,6.91h-1.87l-1.12-4.11"/>
        <path class="cls-1" d="M68.49,27.8c-1.7,0-2.39-.68-2.39-2.26v-7.71h2.07v7.57c0,.49.19.66.6.66.14,0,.35-.05.47-.09h.03v1.71c-.17.06-.47.13-.79.13"/>
        <path class="cls-1" d="M71.9,23.36h2.55c-.05-.72-.35-1.23-1.18-1.23-.63,0-1.18.27-1.37,1.23ZM73.52,27.82c-2.17,0-3.64-1.37-3.64-3.61s1.45-3.69,3.36-3.69c2.09,0,3.13,1.4,3.13,3.49v.79h-4.46c.25,1.08,1.1,1.37,1.95,1.37.74,0,1.27-.16,1.93-.57h.08v1.62c-.57.41-1.37.61-2.34.61"/>
        <path class="cls-1" d="M84.9,20.7h1.54v1.66h-1.54v2.84c0,.61.24.9.86.9.17,0,.39-.02.63-.09h.05v1.63c-.27.09-.68.2-1.27.2-1.68,0-2.34-.77-2.34-2.54v-2.94h-2.65v2.84c0,.61.24.9.86.9.17,0,.39-.02.63-.09h.05v1.63c-.27.09-.68.2-1.27.2-1.68,0-2.34-.77-2.34-2.54v-2.94h-1.07v-1.66h1.07v-1.92h2.07v1.92h2.65v-1.92h2.07v1.92"/>
        <path class="cls-1" d="M93.41,22.65c1.08,0,1.6-.61,1.6-1.49s-.52-1.52-1.6-1.52h-1.35v3.02h1.35ZM97.18,21.16c0,2.14-1.43,3.3-3.6,3.3h-1.52v3.19h-2.14v-9.82h3.66c2.17,0,3.6,1.16,3.6,3.33"/>
        <path class="cls-1" d="M101.75,25.47v-.6c-.31-.17-.72-.24-1.15-.24-.68,0-1.08.25-1.08.82s.41.83,1.02.83,1.02-.3,1.21-.82ZM101.81,26.98c-.46.55-1.13.82-1.85.82-1.37,0-2.48-.83-2.48-2.31,0-1.37,1.12-2.28,2.72-2.28.5,0,1.02.08,1.56.24v-.12c0-.75-.42-1.08-1.54-1.08-.71,0-1.38.2-1.96.53h-.08v-1.67c.53-.31,1.48-.58,2.4-.58,2.11,0,3.25,1.01,3.25,2.76v4.38h-2.01v-.69"/>
        <path class="cls-1" d="M104.84,24.17c0-2.25,1.59-3.66,3.66-3.66.74,0,1.43.16,1.95.53v1.78h-.08c-.46-.35-.99-.55-1.6-.55-1.04,0-1.82.71-1.82,1.9s.79,1.88,1.82,1.88c.61,0,1.15-.2,1.6-.55h.08v1.78c-.52.38-1.21.53-1.95.53-2.07,0-3.66-1.4-3.66-3.64"/>
        <path class="cls-1" d="M113.83,24.5v3.17h-2.07v-9.82h2.07v5.59l2.09-2.76h2.36v.08l-2.51,3.17,2.51,3.66v.08h-2.37l-2.07-3.17"/>
        <path class="cls-1" d="M122.94,25.47v-.6c-.31-.17-.72-.24-1.15-.24-.68,0-1.08.25-1.08.82s.41.83,1.02.83,1.02-.3,1.21-.82ZM123,26.98c-.46.55-1.13.82-1.85.82-1.37,0-2.48-.83-2.48-2.31,0-1.37,1.11-2.28,2.72-2.28.5,0,1.02.08,1.55.24v-.12c0-.75-.42-1.08-1.54-1.08-.71,0-1.38.2-1.96.53h-.08v-1.67c.53-.31,1.48-.58,2.4-.58,2.11,0,3.25,1.01,3.25,2.76v4.38h-2.01v-.69"/>
        <path class="cls-1" d="M128.52,21.79c.38-.77.93-1.21,1.7-1.21.28,0,.56.06.67.13v1.98h-.08c-.24-.09-.52-.16-.91-.16-.64,0-1.15.38-1.32,1.1v4.02h-2.07v-6.99h2.01v1.13"/>
        <path class="cls-1" d="M136.37,25.31v-2.25c-.35-.5-.8-.72-1.32-.72-.91,0-1.52.66-1.52,1.85s.61,1.84,1.52,1.84c.52,0,.97-.22,1.32-.72ZM136.43,26.96c-.44.57-1.13.88-2.07.88-1.79,0-2.94-1.63-2.94-3.64s1.15-3.66,2.94-3.66c.91,0,1.57.28,2.01.8v-3.47h2.07v9.81h-2.01v-.72"/>
        <path class="cls-1" d="M38.58,30.89h6.06v1.19h-4.7v3h4.26v1.16h-4.26v3.27h4.7v1.19h-6.06v-9.81"/>
        <path class="cls-1" d="M49.63,33.65c1.55,0,2.42,1.02,2.42,2.7v4.35h-1.3v-4.32c0-.9-.46-1.54-1.45-1.54-.82,0-1.51.52-1.74,1.26v4.6h-1.3v-6.91h1.3v1.01c.41-.64,1.1-1.15,2.07-1.15"/>
        <path class="cls-1" d="M55.54,33.76h1.78v1.12h-1.78v3.72c0,.78.41,1.05,1.15,1.05.2,0,.42-.03.58-.09h.05v1.11c-.19.08-.46.14-.82.14-1.62,0-2.26-.74-2.26-2.09v-3.85h-1.19v-1.12h1.19v-1.84h1.3v1.84"/>
        <path class="cls-1" d="M59.49,36.58h3.44c-.05-1.02-.55-1.81-1.62-1.81-.99,0-1.63.74-1.82,1.81ZM61.55,40.85c-2.03,0-3.41-1.35-3.41-3.52s1.29-3.68,3.16-3.68,2.89,1.37,2.89,3.39v.6h-4.74c.14,1.4,1.04,2.07,2.28,2.07.77,0,1.32-.17,1.93-.63h.05v1.15c-.57.44-1.3.61-2.15.61"/>
        <path class="cls-1" d="M67.08,34.84c.3-.74.96-1.18,1.71-1.18.3,0,.57.05.68.11v1.29h-.05c-.19-.09-.5-.14-.82-.14-.71,0-1.3.47-1.52,1.26v4.51h-1.3v-6.91h1.3v1.07"/>
        <path class="cls-1" d="M73.63,39.67c1.29,0,2.04-1.02,2.04-2.42s-.75-2.42-2.04-2.42c-.71,0-1.37.42-1.71,1.1v2.66c.35.67,1.01,1.08,1.71,1.08ZM73.85,33.65c2.06,0,3.16,1.68,3.16,3.6s-1.1,3.6-3.16,3.6c-.85,0-1.57-.44-1.93-.91v3.42h-1.3v-9.56h1.3v.78c.36-.49,1.08-.93,1.93-.93"/>
        <path class="cls-1" d="M79.86,34.84c.3-.74.96-1.18,1.71-1.18.3,0,.57.05.68.11v1.29h-.05c-.19-.09-.5-.14-.82-.14-.71,0-1.3.47-1.52,1.26v4.51h-1.3v-6.91h1.3v1.07"/>
        <path class="cls-1" d="M84.14,31c.46,0,.83.36.83.82s-.38.82-.83.82-.83-.36-.83-.82.39-.82.83-.82"/>
        <path class="cls-1" d="M83.49,40.7h1.3v-6.91h-1.3v6.91Z"/>
        <path class="cls-1" d="M89.45,36.63c.99.31,2.09.72,2.09,2.04,0,1.41-1.16,2.14-2.65,2.14-.91,0-1.82-.22-2.34-.63v-1.24h.06c.58.53,1.45.77,2.26.77.74,0,1.4-.28,1.4-.88s-.55-.75-1.63-1.11c-.97-.31-2.06-.68-2.06-1.98s1.1-2.12,2.5-2.12c.82,0,1.54.17,2.12.57v1.26h-.05c-.56-.46-1.23-.72-2.04-.72s-1.27.36-1.27.85c0,.55.5.71,1.62,1.07"/>
        <path class="cls-1" d="M94,36.58h3.44c-.05-1.02-.55-1.81-1.62-1.81-.99,0-1.63.74-1.82,1.81ZM96.06,40.85c-2.03,0-3.41-1.35-3.41-3.52s1.29-3.68,3.16-3.68,2.89,1.37,2.89,3.39v.6h-4.74c.14,1.4,1.04,2.07,2.28,2.07.77,0,1.32-.17,1.93-.63h.05v1.15c-.56.44-1.3.61-2.15.61"/>
      </g>
    </g>
  </g>
</svg>