<?xml version="1.0" encoding="UTF-8"?>
<svg id="katman_2" data-name="katman 2" xmlns="http://www.w3.org/2000/svg" viewBox="0 0 177 45">
  <defs>
    <style>
      .cls-1 {
        fill: #ffd100;
      }

      .cls-1, .cls-2 {
        stroke-width: 0px;
      }

      .cls-2 {
        fill: #fff;
      }
    </style>
  </defs>
  <g id="katman_1" data-name="katman 1">
    <g>
      <rect class="cls-2" width="177" height="45"/>
      <path id="path463" class="cls-1" d="M96.7,14.42c.33,0,.58-.25.58-.58v-1.29c0-.33-.25-.58-.58-.58-9.46,0-9.46,2.12-9.46,3.2v10.88c0,.33.25.58.58.58h3.78c.33,0,.58-.25.58-.58v-10.09c-.04-.46-.04-1.54,4.52-1.54ZM59.63,23.76v-8.59c0-1.08,0-3.2-9.46-3.2s-9.13,2.12-9.13,3.2v.79c0,.33.25.58.58.58h3.78c.33,0,.58-.25.58-.58,0-.46,0-1.54,4.23-1.54,4.57,0,4.57,1.08,4.57,1.54v2.32c-1.2-.12-2.7-.21-4.57-.21-9.46,0-9.46,2.12-9.46,3.2v2.49c0,1.08,0,3.2,9.46,3.2s9.42-2.12,9.42-3.2h0ZM54.69,22.93c0,.46,0,1.54-4.57,1.54s-4.57-1.08-4.57-1.54v-.87c0-.46,0-1.58,4.57-1.58s4.57,1.08,4.57,1.58v.87ZM82.88,23.72v-8.55c0-1.08,0-3.2-9.46-3.2-1.87,0-3.36.08-4.57.21v-5.77c0-.33-.25-.58-.58-.58h-3.78c-.33,0-.58.25-.58.58v17.31c0,1.08,0,3.2,9.46,3.2,9.51.04,9.51-2.12,9.51-3.2ZM68.89,22.93v-6.97c0-.46,0-1.54,4.57-1.54s4.57,1.08,4.57,1.54v6.97c0,.46,0,1.54-4.57,1.54s-4.57-1.08-4.57-1.54ZM108.32,26.96c9.46,0,9.46-2.12,9.46-3.2v-8.59c0-1.08,0-3.2-9.46-3.2s-9.13,2.12-9.13,3.2v.79c0,.33.25.58.58.58h3.78c.33,0,.58-.25.58-.58,0-.46,0-1.54,4.19-1.54,4.57,0,4.57,1.08,4.57,1.54v2.32c-1.2-.12-2.7-.21-4.57-.21-9.46,0-9.46,2.12-9.46,3.2v2.49c-.04,1.08-.04,3.2,9.46,3.2h0ZM103.75,22.06c0-.46,0-1.58,4.57-1.58s4.57,1.08,4.57,1.58v.87c0,.46,0,1.54-4.57,1.54s-4.57-1.08-4.57-1.54v-.87ZM35.93,5.87h-3.78c-.33,0-.58.25-.58.58v16.52c0,.46,0,1.54-4.57,1.54s-4.52-1-4.57-1.49v-.75c0-.33-.25-.58-.58-.58h-3.78c-.33,0-.58.25-.58.58v1.45c0,1.08,0,3.2,9.46,3.2s9.46-2.12,9.46-3.2V6.41c.12-.29-.17-.54-.5-.54h0ZM19.33,35.01h-1.41c-.21,0-.33.17-.33.33v3.49c0,.21.17.33.33.33h1.41c.21,0,.33-.17.33-.33v-3.49c.04-.17-.12-.33-.33-.33ZM26.38,35.01h-1.62c-.21,0-.37.17-.37.37v3.45c0,.21.17.37.37.37h1.62c.21,0,.37-.17.37-.37v-3.45c-.04-.21-.21-.37-.37-.37ZM33.4,35.01h-1.87c-.21,0-.37.17-.37.37v3.4c0,.21.17.37.37.37h1.87c.21,0,.37-.17.37-.37v-3.4c0-.21-.17-.37-.37-.37ZM40.41,35.01h-2.08c-.21,0-.37.17-.37.37v3.4c0,.21.17.37.37.37h2.08c.21,0,.37-.17.37-.37v-3.4c.04-.21-.17-.37-.37-.37ZM47.47,35.01h-2.32c-.21,0-.42.17-.42.42v3.36c0,.21.17.42.42.42h2.32c.21,0,.42-.17.42-.42v-3.36c-.04-.21-.21-.42-.42-.42ZM54.48,35.01h-2.53c-.25,0-.42.21-.42.42v3.32c0,.25.21.42.42.42h2.53c.25,0,.42-.21.42-.42v-3.32c0-.21-.21-.42-.42-.42ZM61.5,35.01h-2.78c-.25,0-.46.21-.46.46v3.28c0,.25.21.46.46.46h2.78c.25,0,.46-.21.46-.46v-3.28c0-.25-.21-.46-.46-.46ZM68.51,35.01h-2.99c-.25,0-.46.21-.46.46v3.28c0,.25.21.46.46.46h2.99c.25,0,.46-.21.46-.46v-3.28c0-.25-.17-.46-.46-.46ZM75.57,35.01h-3.24c-.25,0-.46.21-.46.46v3.24c0,.25.21.46.46.46h3.24c.25,0,.46-.21.46-.46v-3.24c0-.25-.21-.46-.46-.46ZM82.59,35.01h-3.45c-.29,0-.5.21-.5.5v3.2c0,.29.21.5.5.5h3.45c.29,0,.5-.21.5-.5v-3.2c0-.25-.21-.5-.5-.5ZM89.6,35.01h-3.65c-.29,0-.5.21-.5.5v3.15c0,.29.21.5.5.5h3.65c.29,0,.5-.21.5-.5v-3.15c.04-.25-.21-.5-.5-.5h0ZM141.65,35.01h-48.52c-.5,0-.91.42-.91.91v2.32c0,.5.42.91.91.91h48.52c.5,0,.91-.42.91-.91v-2.32c0-.5-.42-.91-.91-.91h0ZM158.25,5.75c-.66,0-1.16.58-1.16,1.25v8.55c0,.21-.25.29-.37.17l-9.67-9.59c-.37-.37-1-.46-1.49-.17-.37.21-.58.62-.58,1.04v12.04c0,.66.54,1.2,1.25,1.2.66,0,1.2-.58,1.2-1.25v-8.55c0-.21.25-.29.37-.17l9.63,9.63c.25.25.54.37.87.37.21,0,.42-.04.62-.17.37-.21.58-.62.58-1.08V6.95c-.04-.66-.58-1.2-1.25-1.2h0ZM141.36,11.81h-3.57c-.66,0-1.25.54-1.25,1.2s.54,1.25,1.2,1.25h2.12c.17,0,.29.12.29.29v3.03h0c0,.17-.12.29-.29.29h-4.44c-2.82,0-5.06-2.28-4.9-5.11.12-2.53,2.24-4.57,4.81-4.57h5.98c.66,0,1.25-.54,1.25-1.2s-.54-1.25-1.2-1.25h-5.94c-3.86,0-7.14,3.03-7.35,6.89-.21,4.15,3.11,7.6,7.22,7.6h6.02c.66,0,1.2-.54,1.2-1.2v-6.02c.08-.66-.46-1.2-1.16-1.2h0Z"/>
    </g>
  </g>
</svg>