<?xml version="1.0" encoding="UTF-8"?>
<svg id="katman_2" data-name="katman 2" xmlns="http://www.w3.org/2000/svg" viewBox="0 0 177 45">
  <defs>
    <style>
      .cls-1 {
        fill: #000;
      }

      .cls-1, .cls-2 {
        stroke-width: 0px;
      }

      .cls-2 {
        fill: #fff;
      }
    </style>
  </defs>
  <g id="katman_1" data-name="katman 1">
    <g>
      <rect class="cls-2" width="177" height="45"/>
      <g>
        <g>
          <path class="cls-1" d="M87.13,34.39h.88l4.54,6.26v-6.26h.78v7.6h-.74l-4.68-6.45v6.45h-.78v-7.6Z"/>
          <path class="cls-1" d="M95.27,34.39h5.02v.77h-4.21v2.51h4.11v.76h-4.11v2.82h4.25v.74h-5.06v-7.6Z"/>
          <path class="cls-1" d="M104.36,35.16h-2.85v-.77h6.51v.77h-2.85v6.83h-.81v-6.83Z"/>
          <path class="cls-1" d="M109.01,34.39h.83l2,6.28,2.04-6.28h.7l2.03,6.28,2.01-6.28h.78l-2.44,7.65h-.7l-2.05-6.32-2.04,6.32h-.71l-2.45-7.65Z"/>
          <path class="cls-1" d="M120.12,38.18c0-2.71,1.38-3.92,3.81-3.92s3.83,1.21,3.83,3.92-1.39,3.93-3.83,3.93-3.81-1.21-3.81-3.93ZM126.96,38.19c0-2.05-.95-3.16-3.02-3.16s-3,1.11-3,3.16.94,3.17,3,3.17,3.02-1.11,3.02-3.17Z"/>
          <path class="cls-1" d="M132.48,38.89h-2.28v3.1h-.79v-7.6h3.28c1.76,0,2.56.71,2.56,2.21,0,1.31-.63,2.08-1.95,2.25l1.83,3.13h-.86l-1.8-3.1ZM132.71,38.15c1.08,0,1.74-.33,1.74-1.53s-.65-1.49-1.77-1.49h-2.47v3.01h2.5Z"/>
          <path class="cls-1" d="M139.29,37.95l-1.52,1.66v2.37h-.79v-7.6h.79v4.19l3.84-4.19h.93l-2.73,2.98,3.1,4.61h-.91l-2.72-4.03Z"/>
          <path class="cls-1" d="M143.59,41.21l.41-.61c.91.57,1.8.77,2.72.77,1.57,0,2.27-.44,2.27-1.49s-.9-1.23-2.27-1.48c-1.64-.29-2.75-.56-2.75-2.1s.94-2.04,2.75-2.04c1.19,0,2.04.27,2.64.68l-.43.66c-.54-.36-1.35-.59-2.21-.59-1.36,0-1.95.38-1.95,1.28,0,.96.79,1.15,2.14,1.39,1.66.3,2.86.54,2.86,2.17,0,1.51-.96,2.23-3.03,2.23-1.15,0-2.18-.24-3.15-.87Z"/>
        </g>
        <g>
          <g>
            <path class="cls-1" d="M157.71,3c-10.68,0-11.13,4.78-11.13,11.53v16.57h2.52V14.53c0-5.09-.2-9.17,8.61-9.17.94,0,1.78.05,2.54.14v-2.4c-.78-.07-1.62-.11-2.54-.11Z"/>
            <path class="cls-1" d="M33.17,20.32V3.55h2.57v16.82c0,4.84-.05,8.91,8.81,8.91s8.61-4.08,8.61-9.17V3.55h2.52v16.57c0,6.75-.45,11.53-11.13,11.53s-11.38-4.78-11.38-11.33Z"/>
            <path class="cls-1" d="M82.46,14.33v16.77h-2.57V14.28c0-4.83.05-8.91-8.81-8.91s-8.61,4.08-8.61,9.17v16.57h-2.52V14.53c0-6.75.45-11.53,11.13-11.53s11.38,4.78,11.38,11.33Z"/>
            <path class="cls-1" d="M87.13,3.6h2.46v27.5h-2.46V3.6Z"/>
            <path class="cls-1" d="M94.22,3.6h12.87c6.38,0,9.28,3.17,9.28,8.81s-2.86,9.13-9.31,9.13h-10.37v9.55h-2.47V3.6ZM107.13,19.07c4.45,0,6.66-2.17,6.66-6.55s-2.39-6.46-6.77-6.46h-10.34v13h10.45Z"/>
            <path class="cls-1" d="M119.24,17.25c0-8.11,2.32-14.35,12.69-14.35s11.08,7.2,11.03,14.81h-21.25c.05,6.7,1.71,11.69,10.43,11.69,4.63,0,6.75-1.26,9.02-2.92l1.41,1.86c-2.52,1.86-5.49,3.32-10.43,3.32-10.88,0-12.89-6.3-12.89-14.4ZM121.76,15.38h18.74c-.25-5.49-.6-10.17-8.61-10.17s-9.82,4.18-10.12,10.17Z"/>
            <path class="cls-1" d="M17.71,37.07c10.68,0,11.13-4.78,11.13-11.53V3.55h-2.52v21.98c0,5.09.2,9.17-8.61,9.17-.33,0-.65,0-.96-.02v2.37c.31,0,.63.01.96.01Z"/>
          </g>
          <g>
            <path class="cls-1" d="M154.61,31.22c-.96,0-1.74-.78-1.74-1.74s.78-1.74,1.74-1.74,1.74.78,1.74,1.74-.78,1.74-1.74,1.74h0ZM154.61,27.97c-.84,0-1.51.68-1.51,1.51s.68,1.51,1.51,1.51,1.51-.68,1.51-1.51-.68-1.51-1.51-1.51h0Z"/>
            <path class="cls-1" d="M154.73,29.71h-.56v.77h-.27v-2h.89c.51,0,.7.21.7.6,0,.32-.14.54-.48.61l.45.79h-.29l-.45-.77ZM154.79,29.46c.27,0,.43-.08.43-.37s-.15-.36-.44-.36h-.61v.73h.62Z"/>
          </g>
        </g>
      </g>
    </g>
  </g>
</svg>