<?xml version="1.0" encoding="UTF-8"?>
<svg id="katman_2" data-name="katman 2" xmlns="http://www.w3.org/2000/svg" viewBox="0 0 177 45">
  <defs>
    <style>
      .cls-1, .cls-2 {
        fill: #676867;
      }

      .cls-1, .cls-2, .cls-3 {
        stroke-width: 0px;
      }

      .cls-2 {
        fill-rule: evenodd;
      }

      .cls-3 {
        fill: #fff;
      }
    </style>
  </defs>
  <g id="katman_1" data-name="katman 1">
    <g>
      <rect class="cls-3" width="177" height="45"/>
      <g>
        <polygon class="cls-1" points="23.35 16.37 17.38 39.3 19.92 39.3 25.12 18.23 25.2 18.23 29.63 39.3 32.25 39.3 47.46 18.56 47.54 18.56 41.88 39.3 44.46 39.3 50.35 16.37 46.54 16.37 31.44 36.95 27.16 16.37 23.35 16.37"/>
        <polygon class="cls-1" points="52.83 22.73 48.55 39.3 50.98 39.3 55.25 22.73 52.83 22.73"/>
        <polygon class="cls-1" points="58.74 22.73 54.52 39.3 56.94 39.3 58.49 33.29 62.72 30.34 68 39.3 70.66 39.3 64.65 29.12 74.05 22.73 70.81 22.73 59.18 30.82 59.1 30.76 61.17 22.73 58.74 22.73"/>
        <path class="cls-2" d="M75.48,22.73l-4.28,16.57h2.43l2.24-8.67c.81-3.12,3.12-6.03,7.47-6.1.46,0,.92.03,1.39.03l.54-2.02c-.42-.03-.89-.03-1.31-.03-3.55-.03-5.66,1.67-7.2,4.04h-.08l1-3.82h-2.2Z"/>
        <path class="cls-2" d="M102.11,28.73c0-4.08-3.24-6.49-7.86-6.49-7.09,0-11.1,5.2-11.1,10.63,0,4.15,2.81,6.9,7.94,6.9,7.36,0,11.02-5.46,11.02-11.05M99.68,29.15c0,3.85-2.81,8.93-8.13,8.93-4.04,0-5.97-2.18-5.97-5.39,0-3.89,2.93-8.73,8.24-8.73,3.89,0,5.86,2.12,5.86,5.2"/>
        <polygon class="cls-2" points="125.4 22.72 126.98 16.37 103.24 16.37 101.67 22.73 109.29 22.73 109.29 22.73 117.78 22.73 117.78 22.73 125.4 22.72"/>
        <polygon class="cls-2" points="108.54 25.76 105.17 39.29 113.65 39.29 117.02 25.77 117.02 25.76 108.54 25.76 108.54 25.76"/>
        <path class="cls-2" d="M126.76,25.76l-3.35,13.53h7.63l3.35-13.53h-7.63ZM135.16,22.72l1.58-6.35h-7.63l-1.6,6.36h7.64Z"/>
        <polygon class="cls-2" points="139.9 16.37 134.2 39.29 141.83 39.29 143.02 34.54 144.75 33.26 147.45 39.29 155.73 39.29 150.65 29.34 159.62 22.63 150.5 22.63 144.87 27.51 144.79 27.51 147.53 16.37 139.9 16.37"/>
        <path class="cls-2" d="M56.11,5.22c.93,6.47,4.41,10.4,11.49,10.73-6.67,2.55-13.55-3.45-11.49-10.73"/>
        <path class="cls-2" d="M52.41,6.36c.08-.02.09.04.09.09.23,4.13,1.97,7.26,4.27,9.4,2.31,2.14,5.4,3.87,9.77,3.8-8.18,3.26-16.78-4.57-14.14-13.29"/>
      </g>
    </g>
  </g>
</svg>