<?xml version="1.0" encoding="UTF-8"?>
<svg id="katman_2" data-name="katman 2" xmlns="http://www.w3.org/2000/svg" viewBox="0 0 177 45">
  <defs>
    <style>
      .cls-1 {
        fill: none;
        stroke: #172fa6;
        stroke-width: 1.7px;
      }

      .cls-2 {
        fill: #172fa6;
      }

      .cls-2, .cls-3 {
        stroke-width: 0px;
      }

      .cls-3 {
        fill: #fff;
      }
    </style>
  </defs>
  <g id="katman_1" data-name="katman 1">
    <g>
      <rect class="cls-3" width="177" height="45"/>
      <g>
        <path id="N" class="cls-2" d="M16.94,31.16h4.5v-10.6h.05l8.24,10.6h4.5V13.85h-4.5v10.58h-.05l-8.24-10.58h-4.5v17.31"/>
        <path id="E" class="cls-2" d="M51.7,17.66v-3.81h-9.85v17.31h9.85v-3.81h-5.35v-2.99h5.07v-3.81h-5.07v-2.89h5.35"/>
        <path id="T" class="cls-2" d="M66.82,17.66h3.72v-3.81h-11.94v3.81h3.72v13.49h4.5v-13.49"/>
        <path id="G" class="cls-2" d="M84.5,21.49v3.53h3.67c-.19,1.99-1.67,3.01-3.63,3.01-2.96,0-4.57-2.73-4.57-5.42s1.54-5.46,4.5-5.46c1.81,0,3.12,1.1,3.74,2.75l4.27-1.79c-1.49-3.24-4.25-4.85-7.8-4.85-5.58,0-9.39,3.7-9.39,9.32s3.79,9.13,9.23,9.13c2.9,0,5.44-1.03,7.14-3.39,1.54-2.16,1.72-4.31,1.77-6.84h-8.93"/>
        <g id="E2">
          <path id="E-2" data-name="E" class="cls-2" d="M110.5,17.66v-3.81h-9.85v17.31h9.85v-3.81h-5.35v-2.99h5.07v-3.81h-5.07v-2.89h5.35"/>
        </g>
        <path id="A" class="cls-2" d="M127.48,24.67h-3.74l1.86-5.51h.04l1.84,5.51ZM128.7,28.12l1.13,3.01h4.8l-6.52-17.31h-4.91l-6.66,17.31h4.78l1.2-3.01h6.19"/>
        <path id="R" class="cls-2" d="M145.16,17.29h.44c1.47,0,3.12.27,3.12,2.16s-1.65,2.16-3.12,2.16h-.44v-4.31ZM149.61,24.06c2.46-.44,3.78-2.5,3.78-4.89,0-3.7-2.59-5.32-6.01-5.32h-6.72v17.31h4.5v-6.65h.04l4.25,6.65h5.6l-5.44-7.09"/>
        <path id="reg" class="cls-2" d="M157.91,15.14h.19c.3,0,.45.09.45.32,0,.2-.14.3-.41.3h-.23v-.61h0ZM157.28,14.74v2.29h.63v-.91h.19l.43.91h.69l-.51-1.01c.31-.09.49-.32.49-.62,0-.43-.33-.67-.99-.67h-.92Z"/>
        <path id="circ" class="cls-1" d="M160.06,15.93c0,1.05-.85,1.9-1.9,1.9s-1.9-.85-1.9-1.9.85-1.9,1.9-1.9,1.9.85,1.9,1.9Z"/>
      </g>
    </g>
  </g>
</svg>