<?xml version="1.0" encoding="UTF-8"?>
<svg id="katman_2" data-name="katman 2" xmlns="http://www.w3.org/2000/svg" viewBox="0 0 177 45">
  <defs>
    <style>
      .cls-1 {
        fill: #000;
      }

      .cls-1, .cls-2, .cls-3 {
        stroke-width: 0px;
      }

      .cls-2 {
        fill: #fff;
      }

      .cls-3 {
        fill: #76b900;
      }
    </style>
  </defs>
  <g id="katman_1" data-name="katman 1">
    <g>
      <rect class="cls-2" width="177" height="45"/>
      <g>
        <path class="cls-1" d="M104.77,13.96v18.18h5.06V13.96h-5.06ZM64.3,13.96v18.18h5.19v-14.22h4.1c1.37,0,2.19.27,2.87.96.82.82,1.09,2.32,1.09,4.78v8.34h5.06v-9.98c0-7.25-4.65-8.2-9.02-8.2l-9.3.14ZM112.97,13.96v18.18h8.34c4.51,0,5.88-.68,7.52-2.32,1.09-1.09,1.78-3.69,1.78-6.56,0-2.6-.55-4.78-1.64-6.29-1.91-2.6-4.65-3.01-8.75-3.01h-7.25ZM118.03,17.92h2.19c3.14,0,5.33,1.37,5.33,5.19s-2.05,5.19-5.33,5.19h-2.19v-10.39ZM97.25,13.96l-4.24,14.49-4.1-14.49h-5.6l5.88,18.18h7.38l5.88-18.18h-5.19ZM133.07,32.14h5.19V13.96h-5.19v18.18ZM147.42,13.96l-7.11,18.18h5.06l1.09-3.28h8.48l1.09,3.14h5.47l-7.25-18.18-6.84.14ZM150.7,17.24l3.14,8.48h-6.29l3.14-8.48Z"/>
        <path class="cls-3" d="M31.08,16.96v-2.46h.68c6.84-.27,11.35,5.88,11.35,5.88,0,0-4.78,6.7-9.98,6.7-.68,0-1.37-.14-2.05-.27v-7.66c2.73.27,3.14,1.5,4.78,4.1l3.55-3.01s-2.6-3.42-6.97-3.42c-.41,0-.82.14-1.37.14M31.08,8.62v3.69h.68c9.57-.27,15.72,7.79,15.72,7.79,0,0-7.11,8.61-14.49,8.61-.68,0-1.23,0-1.91-.14v2.32c.55,0,1.09.14,1.64.14,6.97,0,11.89-3.55,16.81-7.66.82.68,4.1,2.19,4.78,2.87-4.65,3.83-15.45,6.97-21.46,6.97-.55,0-1.09,0-1.64-.14v3.28h26.25V8.62h-26.38ZM31.08,26.67v1.91c-6.43-1.09-8.2-7.79-8.2-7.79,0,0,3.01-3.42,8.2-3.96v2.19h0c-2.73-.27-4.78,2.19-4.78,2.19,0,0,1.23,4.24,4.78,5.47M19.74,20.65s3.83-5.6,11.35-6.15v-2.05c-8.34.68-15.58,7.79-15.58,7.79,0,0,4.1,11.89,15.58,12.99v-2.19c-8.48-1.09-11.35-10.39-11.35-10.39Z"/>
      </g>
    </g>
  </g>
</svg>