<?xml version="1.0" encoding="UTF-8"?>
<svg id="katman_2" data-name="katman 2" xmlns="http://www.w3.org/2000/svg" viewBox="0 0 177 45">
  <defs>
    <style>
      .cls-1 {
        fill: #000;
      }

      .cls-1, .cls-2, .cls-3 {
        stroke-width: 0px;
      }

      .cls-2 {
        fill: #f04e23;
      }

      .cls-3 {
        fill: #fff;
      }
    </style>
  </defs>
  <g id="katman_1" data-name="katman 1">
    <g>
      <rect class="cls-3" width="177" height="45"/>
      <g>
        <path class="cls-1" d="M77.62,14.07c-1.87,0-3.82.51-6.23,1.81l1.34,3.32c2.09-1.17,3.82-1.69,5.09-1.69,1.44,0,2.07.54,2.07,1.25v.05c0,.49-.39.76-1.34.86l-1.65.17c-4.14.44-5.84,2.25-5.84,4.74v.17c0,2.37,1.95,4.23,4.7,4.23,1.81,0,3.38-.77,4.34-2.12l.31,1.88h3.75v-8.53c0-4.03-2.31-6.13-6.52-6.13M77.26,25.72c-1.39,0-2.04-.54-2.04-1.37v-.05c0-.73.41-1.27,1.92-1.49l.66-.1c.96-.13,1.55-.31,2.09-.64v1.08c0,1.64-1.02,2.57-2.63,2.57"/>
        <polygon class="cls-2" points="30.35 26.23 42.38 14.16 37.58 9.35 32.78 14.16 35.17 16.56 23.15 28.63 27.94 33.45 32.74 28.63 30.35 26.23"/>
        <polygon class="cls-2" points="15.97 21.42 27.99 9.35 32.79 14.16 20.76 26.24 15.97 21.42"/>
        <polygon class="cls-2" points="32.74 28.64 44.76 16.57 49.56 21.38 37.53 33.46 32.74 28.64"/>
        <rect class="cls-1" x="86.57" y="9.18" width="4.26" height="19.55"/>
        <path class="cls-1" d="M63.89,14.07c-1.94,0-3.49.86-4.35,2.21l-.33-1.96h-3.75v19.3h4.26v-6.69c.81,1.25,2.34,2.05,4.16,2.05,3.41,0,6.18-3.03,6.18-7.21v-.49c0-4.18-2.77-7.21-6.18-7.21M65.69,21.64c0,2.2-1.14,3.79-3.04,3.79s-3.04-1.59-3.04-3.79v-.24c0-2.2,1.14-3.79,3.04-3.79s3.04,1.59,3.04,3.79v.24Z"/>
        <path class="cls-1" d="M148.33,14.07c-4.36,0-7.42,3.03-7.42,7.21v.49c0,4.18,3.07,7.21,7.42,7.21s7.42-3.03,7.42-7.21v-.49c0-4.18-3.07-7.21-7.42-7.21M151.37,21.64c0,2.2-1.14,3.79-3.04,3.79s-3.04-1.59-3.04-3.79v-.24c0-2.2,1.14-3.79,3.04-3.79s3.04,1.59,3.04,3.79v.24Z"/>
        <path class="cls-1" d="M159.68,14.95v-.07c0-.42-.32-.71-.88-.71h-.97v2.25h.46v-.76h.51l.39.76h.51l-.48-.89c.29-.09.45-.31.45-.58M158.3,14.58h.51c.29,0,.41.1.41.32v.02c0,.2-.12.32-.41.32h-.51v-.66Z"/>
        <path class="cls-1" d="M158.72,12.97c-1.31,0-2.31,1-2.31,2.32s1,2.32,2.31,2.32,2.31-1,2.31-2.32-1-2.32-2.31-2.32M158.72,17.29c-1.14,0-1.97-.83-1.97-2s.83-2,1.97-2,1.97.83,1.97,2-.83,2-1.97,2"/>
        <rect class="cls-1" x="124.13" y="9.18" width="4.26" height="19.55"/>
        <path class="cls-1" d="M136.77,25.43c-1.24,0-1.7-.61-1.7-1.93v-5.89h5.01v-3.3h-5.01v-3.3l-4.26.64v12.27c0,3.35,1.7,5.06,5.11,5.06,1.51,0,3.29-.46,4.75-1.3l-1.22-3.03c-.85.46-2.05.78-2.68.78"/>
        <path class="cls-1" d="M115.12,14.07c-1.87,0-3.82.51-6.23,1.81l1.34,3.32c2.09-1.17,3.82-1.69,5.09-1.69,1.44,0,2.07.54,2.07,1.25v.05c0,.49-.39.76-1.34.86l-1.65.17c-4.14.44-5.84,2.25-5.84,4.74v.17c0,2.37,1.95,4.23,4.7,4.23,1.81,0,3.38-.77,4.34-2.12l.31,1.88h3.75v-8.53c0-4.03-2.31-6.13-6.52-6.13M114.76,25.72c-1.39,0-2.04-.54-2.04-1.37v-.05c0-.73.41-1.27,1.92-1.49l.66-.1c.96-.13,1.55-.31,2.09-.64v1.08c0,1.64-1.02,2.57-2.63,2.57"/>
        <path class="cls-1" d="M100.15,14.07c-4.36,0-7.42,3.03-7.42,7.21v.49c0,4.18,3.07,7.21,7.42,7.21s7.42-3.03,7.42-7.21v-.49c0-4.18-3.07-7.21-7.42-7.21M103.19,21.64c0,2.2-1.14,3.79-3.04,3.79s-3.04-1.59-3.04-3.79v-.24c0-2.2,1.14-3.79,3.04-3.79s3.04,1.59,3.04,3.79v.24Z"/>
        <polygon class="cls-1" points="120.15 35.72 118.6 33.68 118.59 33.68 118.59 35.72 117.59 35.72 117.59 32.2 118.68 32.2 120.19 34.19 120.2 34.19 120.2 32.2 121.21 32.2 121.21 35.72 120.15 35.72"/>
        <polygon class="cls-1" points="123.59 34.31 123.59 34.86 125.74 34.86 125.63 35.72 122.53 35.72 122.53 32.2 125.63 32.2 125.63 33.05 123.59 33.05 123.59 33.54 125.2 33.54 125.2 34.31 123.59 34.31"/>
        <polygon class="cls-1" points="127.88 35.72 127.88 33.11 126.59 33.11 126.59 32.2 130.02 32.2 130.13 33.11 128.84 33.11 128.84 35.72 127.88 35.72"/>
        <polygon class="cls-1" points="135.27 34.64 135.8 32.2 136.87 32.2 135.91 35.72 134.62 35.72 133.98 33.59 133.87 33.59 133.23 35.72 131.84 35.72 130.98 32.2 132.05 32.2 132.7 34.64 132.7 34.64 133.45 32.2 134.52 32.2 135.16 34.64 135.27 34.64"/>
        <path class="cls-1" d="M137.62,33.96c0-1.15.78-1.86,2-1.86s2,.72,2,1.86-.78,1.86-2,1.86-2-.72-2-1.86M140.58,33.96c0-.61-.35-.97-.96-.97s-.96.36-.96.97.35.97.95.97.96-.36.96-.97"/>
        <path class="cls-1" d="M142.76,32.2h2.04c.93,0,1.39.44,1.39,1.26,0,.56-.23.95-.68,1.13l.83,1.13h-1.19l-.65-.92h-.69v.92h-1.05v-3.52ZM144.67,33.97c.35,0,.48-.2.48-.46s-.13-.46-.48-.46h-.86v.92h.86Z"/>
        <polygon class="cls-1" points="149.94 33.89 151.33 35.71 151.33 35.72 150.15 35.72 149.08 34.36 148.65 34.36 148.65 35.72 147.58 35.72 147.58 32.2 148.65 32.2 148.65 33.49 149.08 33.49 150.04 32.2 151.33 32.2 151.33 32.2 149.94 33.89"/>
        <path class="cls-1" d="M152.19,35.48v-.96h0c.59.3,1.16.44,1.65.44.38,0,.57-.09.57-.27s-.13-.22-.88-.34c-.82-.13-1.37-.38-1.37-1.09,0-.66.58-1.17,1.7-1.17.45,0,.92.1,1.36.28v.95h0c-.42-.24-.98-.39-1.43-.39-.4,0-.56.1-.56.26,0,.21.25.23.86.33.82.14,1.37.37,1.37,1.12,0,.58-.43,1.16-1.67,1.16-.61,0-1.1-.13-1.61-.33"/>
      </g>
    </g>
  </g>
</svg>