<?xml version="1.0" encoding="UTF-8"?>
<svg id="katman_2" data-name="katman 2" xmlns="http://www.w3.org/2000/svg" viewBox="0 0 177 45">
  <defs>
    <style>
      .cls-1 {
        fill: #ff3900;
      }

      .cls-1, .cls-2, .cls-3 {
        stroke-width: 0px;
      }

      .cls-2 {
        fill: #fff;
      }

      .cls-3 {
        fill: #00213c;
      }
    </style>
  </defs>
  <g id="katman_1" data-name="katman 1">
    <g>
      <rect class="cls-2" width="177" height="45"/>
      <g>
        <path class="cls-3" d="M90.79,15.31c-4.02-.07-7.33,3.14-7.4,7.15,0,.13,0,.26,0,.38v14.3l3.72-2.15v-6.26c1.08.81,2.4,1.24,3.76,1.21,4.04.09,7.39-3.11,7.48-7.15.09-4.04-3.11-7.39-7.15-7.48-.13,0-.26,0-.39,0h-.02ZM90.79,26.27c-2.01,0-3.64-1.63-3.64-3.64s1.63-3.64,3.64-3.64,3.64,1.63,3.64,3.64h0c.1,1.92-1.38,3.55-3.29,3.64-.12,0-.23,0-.35,0ZM116.24,10.73l3.72-2.16v20.81h-3.72V10.73ZM106.97,15.31c-4.04.04-7.29,3.35-7.24,7.39.04,4.04,3.35,7.29,7.39,7.24,4.01-.04,7.25-3.31,7.24-7.32.02-4.02-3.22-7.29-7.24-7.31-.05,0-.1,0-.14,0h-.01ZM106.97,26.27c-2.01,0-3.64-1.63-3.64-3.64s1.63-3.64,3.64-3.64,3.64,1.63,3.64,3.64h0c.1,1.92-1.38,3.55-3.3,3.64-.11,0-.23,0-.34,0h-.01ZM137,15.86l-8.69,19.87h-3.97l3.01-6.65-5.84-13.23h4.06l3.83,8.67,3.64-8.67h3.96Z"/>
        <path class="cls-1" d="M71.77,19.74l-7.63,4.41.04-.21v-2.03l-.03-.39-.04-.42-.03-.23-.06-.41-.07-.4-.08-.39-.1-.39-.06-.24-.11-.37-.12-.36-.11-.3-.14-.36-.15-.34-.16-.33-.18-.33-.19-.32v-.03l-.2-.32-.21-.32-.22-.31-.24-.31-.25-.31-.03-.03-.27-.3-.29-.3-.3-.3-.32-.29h0l-.33-.29-.36-.29-.36-.28-.4-.3-.44-.3-.32-.22-.5-.32-.56-.35-.19-.11-.69-.41-.18-.1-.43-.25L40,1.36v5.6l7.63,4.4-.2.07-.17.07-.28.13h0l-.33.18-.35.2-.25.15-.36.23-.32.22-.35.24-.19.14-.32.25-.31.26-.3.27-.29.27-.18.18-.27.28-.25.29-.2.24-.23.3-.22.3-.21.31-.2.32-.19.33v.03l-.18.33-.17.35-.15.35-.15.36-.13.37v.05l-.13.38-.11.39-.11.4-.1.42v.04l-.08.44-.07.46-.06.45-.05.49-.05.53v.39l-.03.59v20.21l4.85-2.79v-8.8l.16.13.15.11.25.18h0l.31.2.36.21.25.14.38.2.35.17.39.18.2.08.39.15.39.14.38.13.38.11.23.06.38.09.38.07.31.05.38.05.38.04.36.03h1.16l.39-.03.38-.04.39-.05.39-.07h.04l.4-.08.4-.1.41-.12.42-.13h0l.42-.15.44-.16.41-.17.46-.2.48-.23.35-.17.53-.27.58-.31.19-.1.7-.4.16-.1.44-.25,15.45-8.92-4.93-2.79ZM52.19,29.74c-3.99,0-7.22-3.23-7.22-7.21,0-3.99,3.23-7.22,7.21-7.22s7.22,3.23,7.22,7.21c0,0,0,0,0,0,0,3.98-3.23,7.22-7.21,7.22Z"/>
      </g>
    </g>
  </g>
</svg>