<?xml version="1.0" encoding="UTF-8"?>
<svg id="katman_2" data-name="katman 2" xmlns="http://www.w3.org/2000/svg" viewBox="0 0 177 45">
  <defs>
    <style>
      .cls-1 {
        fill: #ea7200;
      }

      .cls-1, .cls-2, .cls-3 {
        stroke-width: 0px;
      }

      .cls-2 {
        fill: #fff;
      }

      .cls-3 {
        fill: #221e1f;
      }
    </style>
  </defs>
  <g id="katman_1" data-name="katman 1">
    <g>
      <rect class="cls-2" width="177" height="45"/>
      <g>
        <polyline class="cls-3" points="118.25 24.8 124.85 17.69 121.63 17.67 115 24.8 122.39 33.58 125.5 33.58"/>
        <polyline class="cls-3" points="157.37 15.7 156.89 16.97 156.4 15.7 155.75 15.7 155.75 17.62 156.22 17.62 156.22 16.25 156.22 16.25 156.73 17.62 157.05 17.62 157.54 16.25 157.56 16.25 157.56 17.62 158 17.62 158 15.7"/>
        <polyline class="cls-3" points="153.92 15.7 153.92 16.07 154.48 16.07 154.48 17.62 154.97 17.62 154.97 16.07 155.5 16.07 155.5 15.7"/>
        <g>
          <path class="cls-3" d="M90.03,27.28c0,2.2-1.81,4.01-4.01,4.01s-4.01-1.81-4.01-4.01v-9.54h-2.55v9.54c0,3.61,2.94,6.56,6.56,6.56s6.56-2.94,6.56-6.56v-9.54h-2.55"/>
          <path class="cls-3" d="M102.84,20.15c1.78,0,3.45.86,4.49,2.29l2.39-1c-1.48-2.41-4.05-3.82-6.88-3.85h-.35c-4.26.28-7.6,3.85-7.6,8.11s3.34,7.83,7.6,8.11h.35c2.83,0,5.37-1.44,6.88-3.85l-2.39-1c-1.04,1.44-2.73,2.29-4.49,2.29h-.19c-2.92-.21-5.19-2.64-5.19-5.56s2.36-5.47,5.37-5.56"/>
          <rect class="cls-3" x="112.43" y="17.64" width="2.57" height="15.92"/>
          <path class="cls-3" d="M137.89,27.28c0,2.2-1.81,4.01-4.01,4.01s-4.01-1.81-4.01-4.01v-9.61h-2.55v9.61c0,3.61,2.94,6.56,6.56,6.56s6.56-2.94,6.56-6.56v-9.61h-2.55"/>
          <path class="cls-3" d="M76.5,22.25h0c-.02-2.94-2.39-4.59-5.35-4.59h-7.37v15.87h2.57v-5.56h0s.02-3.27.02-3.24v-2.5h0v-2.2h4.8c1.81,0,3.15.67,3.15,2.2,0,1.81-1.34,2.48-3.15,2.48h-4.8l2.2,2.76,4.91,6.09h3.45l-5.33-6.3c2.92.02,4.89-2.06,4.89-5"/>
          <path class="cls-3" d="M149.24,24.48c-1.23-.35-2.11-.74-2.64-1.14-.53-.39-.79-.9-.79-1.51,0-.67.23-1.23.72-1.64.49-.42,1.18-.63,2.09-.63s1.67.25,2.22.74c.56.49.83,1.16.83,1.99h2.55l.02-.07c.05-1.37-.46-2.5-1.48-3.43-1.04-.93-2.41-1.39-4.12-1.39-1.6,0-2.92.42-3.94,1.25s-1.53,1.9-1.53,3.17.46,2.25,1.39,3.01,2.25,1.39,3.96,1.85c1.2.35,2.04.72,2.5,1.14s.7.97.7,1.62-.25,1.23-.79,1.62c-.53.39-1.25.6-2.2.6s-1.76-.23-2.41-.72c-.67-.49-1-1.2-1-2.15h-2.55l-.02.07c-.05,1.58.56,2.78,1.76,3.64,1.2.86,2.62,1.3,4.24,1.3s3.03-.39,4.08-1.18,1.55-1.85,1.55-3.17c0-1.25-.44-2.29-1.32-3.08-.88-.79-2.15-1.44-3.82-1.9"/>
          <path class="cls-3" d="M46.38,13.36c.21.23.39.44.6.63-.21-.19-.39-.39-.6-.63"/>
          <path class="cls-1" d="M70.08,7.57l.83-.49c.35-.21.46-.67.25-1.02h0c-.21-.35-.65-.44-1-.25l-.86.51s-.05.02-.05.02l-6.37,4.49,7.14-3.24s.02,0,.05-.02"/>
          <path class="cls-1" d="M70.82,9.79l-7.46,2.2,7.78-.79h.07l.95-.21c.39-.09.67-.49.56-.88-.09-.39-.49-.63-.86-.56l-1,.21s-.02,0-.05.02"/>
          <path class="cls-1" d="M72,13.54l-1-.12h-.07l-7.78-.32,7.62,1.81s.05,0,.07.02l.95.12c.42.05.79-.25.83-.65h0c.07-.44-.21-.81-.63-.86"/>
          <path class="cls-3" d="M59.08,9s1.99-.95,3.98-2.02c1.99-1.07.81-2.59.21-2.71s-3.17.35-3.17.35c0,0-2.66.46-4.7.51s-2.69-1.44-2.69-1.44c0,0-.93-1.71-1.32-2.55s-.58-1-1.25-.67c-.53.25.28,2.13.28,2.13,0,0,.49,1.18.72,1.69.23.53.3.95-.21,1.18-.49.23-.83-.7-.83-.7l-.81-1.6s-.49-.83-.63-1.04c-.42-.56-2.83.51-3.03,1.14-.14.39.37,1.9,1.71.7.14-.14.16.12.21.19.21.46.42.97.53,1.27.09.23-.16.97.35,2.25-.12.32-.67.53-.97.81-.23.21-.56.42-.95.67h0l-.51.3s-.02,0-.05.02c-.02.02-.05.02-.07.05h0c-.42.44.58,2.11,2.22,3.73,1.37,1.34,2.8,2.27,3.48,2.29.14,0,.25-.02.32-.12.02-.02.05-.05.05-.09,0-.02.02-.05.02-.07s.02-.05.02-.07c.02-.05.02-.09.05-.14h0c.07-.16.14-.32.23-.49.14-.23.97-.97,1.78-.7,1.97.7,4.93,3.24,5.35,3.31.56.09,1.18-.14,1.44-.72.21-.46-.16-.97-.25-1.14-.16-.28-.7-.93-.7-.93l-1.41-1.6s-1.41-1.37-1.44-2.18c.05-.53,2.04-1.64,2.04-1.64"/>
          <path class="cls-3" d="M47.19,14.21c-.07-.07-.14-.14-.23-.23-.19-.19-.39-.39-.6-.63,0,0-.02-.02-.02-.05-.05-.05-.09-.09-.12-.14-.05-.05-.07-.09-.12-.14l-.02-.02c-.76-.9-1.48-1.95-1.62-2.9h0v-.02h0c-.58.23-2.62.74-3.29.97-.76.28-1.9.44-2.92.51-1.16.07-3.45-.19-4.68-.28-.7-.05-1.51-.05-2.34.09-1.37.23-3.27,1.23-3.48,1.32-.88.32-2.9,1.04-5.14.09-3.24-1.16-2.8-5.19-3.08-5.05-.35.16-.88,2.22-.21,3.98.23.63.63,1.18,1.04,1.67.35.42,1.11.9,1.95,1.2.37.14.76.23,1.09.32.19.05.93.3,1.44.74.42.35.67.86.6,1.04-1.23,3.59-.44,6.21-.44,6.42.09,2.69-1.71,18.86-1.67,19.04.02.05-.05.23.05.39.12.23.37.46.49.65.21.3.28.7.63.74,1.39.19,2.13.02,2.02-1.02-.02-.16-.12-.46-.39-.63-.25-.16-.7-.19-.88-.42-.35-.42-.3-1.11-.25-1.44.23-1.51.65-4.24.93-6.05.16-1.04.83-2.9,1.09-3.38,1.53-2.92,2.41-5.21,2.9-6.56.14-.42.72-.25.7.16-.02.44-.37,1.23-.42,1.3-.09.12-.14.28-.14.42.05,1.67.63,8.99.58,10.38-.05,1.78-.09,2.94-.19,3.54-.02.25.42.76.74,1.02.3.23.42.63.53.65.16.02.74.07,1.25.02.49-.05.88-.19.93-.32.02-.09-.07-.76-.28-.95-.28-.28-.81-.53-1-.63-.53-.23-.46-3.08-.46-3.08l1.09-8.02s2.43-5.05,3.89-5.72c2.69-.65,5.05-.21,5.05-.21,0,0,2.76.79,3.45,3.85.65,2.83,1.53,11.68,1.81,14.55.05.56.14,1,.21,1.04.16.12.65.28.72.63s.14.74.51.9c.25,0,.67.07,1.27.07.37,0,.76.02.95-.19.09-.09.05-.79.05-.79,0-.05-.05-.14-.09-.25-.12-.21-.32-.46-.58-.56-.21-.09-.56-.12-.74-.21-.07-.02-.23-.25-.28-.35-.6-1.11-.76-2.66-.88-3.36-.56-3.2.7-13.78.76-14.53,0,0,.25-.25.53-.63.05-.05.12-.14.12-.14.16.88,0,2.15.23,3.59.16,1.16.39,2.43.6,3.64.51,2.83,1.16,10.19,1.69,10.61.02.02.37.07.37.12.07.23,0,.76.16.83.95.23,1.97.25,2.32-.14.14-.14.07-.6.09-.86,0-.09-.02-.32-.32-.53-.23-.16-.7-.09-.93-.28-.16-.14-.19-.28-.28-.56-.67-1.85-.76-5.54-.95-7.37-.19-1.88-.3-4.01-.25-6.09.05-2.22.35-4.12.05-5.7-.44-2.22-1.09-3.36-1.09-3.36v-.09h-.12c-1.55-.09-3.57-1.92-4.36-2.69"/>
          <path class="cls-1" d="M52.03,15.21s0,.05-.02.07c0,.02-.02.05-.02.07-.02.02-.02.07-.05.09-.07.07-.19.12-.32.12-.67-.02-2.11-.95-3.48-2.29-1.64-1.62-2.64-3.29-2.22-3.73h0s.05-.02.07-.05c0,0,.02,0,.05-.02l.51-.3h0c-.25-.14-.46-.21-.65-.19-.09,0-.86.42-1.04.56-.28.21-.42.39-.39.56v.05c.14.95.86,1.99,1.62,2.9l.02.02s.09.09.12.14c.05.05.09.09.12.14l.02.02c.21.23.39.44.6.63.07.07.14.14.23.23.79.79,2.8,2.59,4.36,2.64h.25c.23-.09.25-.23.25-.23,0,0,.21-.9.21-1.16,0-.14-.09-.28-.16-.35h0s-.05.05-.07.09"/>
          <path class="cls-1" d="M66.12,42.9l-.16-.56h-.02c-.19.23-.39.42-.58.49-.19.09-.44.14-.74.14-.39,0-.7-.12-.93-.32s-.32-.51-.32-.9c0-.42.16-.72.46-.93s.76-.32,1.39-.35l.7-.02v-.21c0-.25-.07-.44-.19-.58-.12-.12-.3-.19-.56-.19-.21,0-.39.02-.58.09s-.37.14-.53.21l-.28-.6c.21-.12.46-.21.72-.25.25-.07.51-.09.74-.09.51,0,.9.12,1.16.32.25.23.39.58.39,1.04v2.71M64.85,42.32c.3,0,.56-.09.74-.25s.28-.42.28-.72v-.35l-.51.02c-.39.02-.7.07-.88.21-.19.12-.28.3-.28.56,0,.19.05.32.16.42.12.07.28.12.49.12"/>
          <path class="cls-1" d="M73.07,42.9h-.86v-2.46c0-.3-.07-.53-.19-.7-.12-.16-.32-.23-.6-.23-.35,0-.63.12-.79.32s-.25.56-.25,1.07v1.99h-.86v-4.01h.67l.12.53h.05c.12-.19.28-.35.51-.44.23-.12.46-.16.74-.16.95,0,1.44.49,1.44,1.46"/>
          <path class="cls-1" d="M82.8,42.9l-.53-1.46h-2.02l-.51,1.46h-.9l1.97-5.31h.95l1.97,5.31M82.04,40.67l-.49-1.44c-.05-.09-.09-.25-.14-.46-.07-.21-.12-.35-.14-.46-.07.3-.16.63-.28.97l-.49,1.37h1.53v.02Z"/>
          <path class="cls-1" d="M86.9,40.79v2.11h-.86v-5.28h1.51c.67,0,1.18.12,1.51.39.32.25.49.65.49,1.16,0,.65-.35,1.14-1.02,1.41l1.51,2.34h-1l-1.27-2.11M86.9,40.07h.6c.39,0,.7-.07.88-.23.19-.14.28-.37.28-.67s-.09-.51-.3-.65c-.19-.14-.49-.19-.88-.19h-.58v1.74h0Z"/>
          <path class="cls-1" d="M93.27,40.79v2.11h-.86v-5.28h1.51c.67,0,1.18.12,1.51.39.32.25.49.65.49,1.16,0,.65-.35,1.14-1.02,1.41l1.51,2.34h-1l-1.27-2.11M93.27,40.07h.6c.39,0,.7-.07.88-.23.19-.14.28-.37.28-.67s-.09-.51-.3-.65c-.19-.14-.49-.19-.88-.19h-.58v1.74h0Z"/>
          <rect class="cls-1" x="98.76" y="37.61" width=".86" height="5.28"/>
          <path class="cls-1" d="M105.71,41.46c0,.46-.16.83-.51,1.11-.35.28-.81.39-1.41.39s-1.09-.09-1.46-.28v-.81c.23.12.49.21.76.28.28.07.53.09.76.09.35,0,.6-.07.76-.19.16-.14.25-.3.25-.53,0-.21-.07-.37-.23-.51-.14-.14-.46-.3-.93-.49-.49-.19-.83-.42-1.02-.67s-.3-.56-.3-.9c0-.44.16-.79.46-1.04s.74-.37,1.25-.37,1.02.12,1.51.32l-.28.7c-.46-.21-.88-.3-1.25-.3-.28,0-.49.07-.63.19s-.21.28-.21.49c0,.14.02.25.09.35.05.09.16.19.28.28.14.09.37.21.72.35.39.16.67.32.86.44.19.14.32.3.39.46.07.21.12.42.12.65"/>
          <path class="cls-1" d="M113.43,42.96c-.6,0-1.07-.16-1.37-.53-.32-.35-.46-.86-.46-1.53s.16-1.18.49-1.55.81-.53,1.44-.53c.42,0,.81.07,1.14.23l-.25.67c-.35-.14-.65-.21-.88-.21-.7,0-1.04.46-1.04,1.37,0,.44.09.79.25,1.02.19.23.42.35.76.35.37,0,.74-.09,1.07-.28v.74c-.16.09-.32.16-.49.19-.19.05-.39.07-.65.07"/>
          <path class="cls-1" d="M120.68,40.88c0,.65-.16,1.16-.51,1.53-.32.37-.81.56-1.39.56-.37,0-.7-.09-1-.25-.28-.16-.51-.42-.67-.72-.16-.32-.23-.67-.23-1.09,0-.65.16-1.16.51-1.53.32-.37.81-.56,1.41-.56s1.04.19,1.37.56c.32.37.51.88.51,1.51M117.76,40.88c0,.93.35,1.39,1.02,1.39s1.02-.46,1.02-1.39-.35-1.37-1.02-1.37c-.35,0-.63.12-.79.35-.16.25-.23.58-.23,1.02"/>
          <path class="cls-1" d="M126.66,42.9h-.86v-2.48c0-.3-.05-.53-.16-.67-.12-.16-.3-.23-.53-.23-.32,0-.58.12-.72.32-.16.21-.23.56-.23,1.07v1.99h-.86v-4.01h.67l.12.53h.05c.12-.19.28-.35.49-.44.21-.12.44-.16.7-.16.63,0,1.02.21,1.23.63h.05c.12-.21.28-.35.51-.46.21-.12.46-.16.74-.16.49,0,.83.12,1.04.37.21.23.32.6.32,1.11v2.59h-.86v-2.48c0-.3-.07-.53-.19-.67-.12-.16-.3-.23-.56-.23-.32,0-.58.09-.72.3-.16.21-.23.53-.23.95"/>
          <path class="cls-1" d="M134.02,42.96c-.51,0-.9-.19-1.18-.56h-.05c.02.35.05.53.05.63v1.64h-.86v-5.79h.7c.02.07.05.25.12.53h.05c.25-.39.67-.6,1.18-.6s.88.19,1.16.53c.28.37.42.86.42,1.53s-.14,1.16-.42,1.53-.67.56-1.16.56M133.81,39.51c-.35,0-.58.09-.74.3s-.23.51-.23.95v.12c0,.49.07.83.23,1.07.16.21.39.32.76.32.3,0,.51-.12.67-.37.16-.23.23-.58.23-1.02s-.07-.79-.23-1.02-.39-.35-.7-.35"/>
          <path class="cls-1" d="M140.74,42.9l-.16-.56h-.02c-.19.23-.39.42-.58.49-.19.09-.44.14-.74.14-.39,0-.7-.12-.93-.32s-.32-.51-.32-.9c0-.42.16-.72.46-.93s.76-.32,1.39-.35l.7-.02v-.21c0-.25-.05-.44-.19-.58-.12-.12-.3-.19-.56-.19-.21,0-.39.02-.58.09s-.37.14-.53.21l-.28-.6c.21-.12.46-.21.72-.25.25-.07.51-.09.74-.09.51,0,.9.12,1.16.32.25.23.39.58.39,1.04v2.71M139.47,42.32c.3,0,.56-.09.74-.25s.28-.42.28-.72v-.35l-.51.02c-.39.02-.7.07-.88.21-.19.12-.28.3-.28.56,0,.19.05.32.16.42.12.07.28.12.49.12"/>
          <path class="cls-1" d="M147.67,42.9h-.86v-2.46c0-.3-.07-.53-.19-.7s-.32-.23-.6-.23c-.35,0-.63.12-.79.32s-.25.56-.25,1.07v1.99h-.81v-4.01h.67l.12.53h.05c.12-.19.3-.35.51-.44.23-.12.46-.16.74-.16.95,0,1.44.49,1.44,1.46"/>
          <path class="cls-1" d="M149.89,38.89h.93l.81,2.27c.12.32.21.63.25.9h.02c.02-.14.07-.3.12-.49.05-.19.37-1.09.93-2.69h.93l-1.71,4.54c-.3.83-.83,1.25-1.55,1.25-.19,0-.37-.02-.56-.07v-.67c.12.02.28.05.44.05.42,0,.7-.23.86-.72l.14-.37"/>
        </g>
      </g>
    </g>
  </g>
</svg>