<?xml version="1.0" encoding="UTF-8"?>
<svg id="katman_2" data-name="katman 2" xmlns="http://www.w3.org/2000/svg" viewBox="0 0 177 45">
  <defs>
    <style>
      .cls-1 {
        fill: #034ea2;
      }

      .cls-1, .cls-2 {
        stroke-width: 0px;
      }

      .cls-2 {
        fill: #fff;
      }
    </style>
  </defs>
  <g id="katman_1" data-name="katman 1">
    <g>
      <rect class="cls-2" width="177" height="45"/>
      <g id="g8872">
        <polygon id="polygon16" class="cls-1" points="135.03 28.21 134.75 12.28 139.78 12.28 139.78 32.36 132.56 32.36 127.54 15.88 127.43 15.88 127.71 32.36 122.72 32.36 122.72 12.28 130.26 12.28 134.92 28.21 135.03 28.21"/>
        <polygon id="polygon18" class="cls-1" points="43.72 14.16 40.94 32.57 35.47 32.57 39.23 12.28 48.25 12.28 52 32.57 46.54 32.57 43.84 14.16 43.72 14.16"/>
        <polygon id="polygon20" class="cls-1" points="64.76 32.57 61.36 14.33 61.25 14.33 61.13 32.57 56.04 32.57 56.49 12.28 64.77 12.28 67.28 27.79 67.38 27.79 69.89 12.28 78.17 12.28 78.61 32.57 73.53 32.57 73.4 14.33 73.3 14.33 69.9 32.57 64.76 32.57"/>
        <path id="path22" class="cls-1" d="M26.92,26.85c.2.49.14,1.12.05,1.5-.17.67-.63,1.36-1.98,1.36-1.27,0-2.04-.73-2.04-1.84v-1.96h-5.44v1.57c0,4.52,3.56,5.89,7.37,5.89s6.69-1.25,7.17-4.64c.25-1.75.06-2.9-.02-3.33-.86-4.25-8.56-5.51-9.13-7.89-.1-.41-.07-.84-.02-1.07.14-.65.58-1.36,1.85-1.36,1.19,0,1.89.73,1.89,1.84v1.25h5.06v-1.43c0-4.42-3.97-5.11-6.84-5.11-3.61,0-6.56,1.19-7.1,4.5-.15.91-.17,1.72.05,2.74.89,4.15,8.09,5.35,9.14,7.97h0Z"/>
        <path id="path24" class="cls-1" d="M92.9,26.81c.2.49.14,1.1.05,1.48-.17.67-.62,1.35-1.96,1.35-1.25,0-2.02-.73-2.02-1.82v-1.95h-5.39v1.55c0,4.48,3.52,5.83,7.3,5.83s6.63-1.24,7.1-4.59c.25-1.74.07-2.87-.02-3.3-.85-4.21-8.47-5.46-9.04-7.82-.1-.41-.07-.83-.02-1.05.14-.65.58-1.35,1.84-1.35,1.17,0,1.86.72,1.86,1.82v1.24h5.02v-1.41c0-4.37-3.93-5.06-6.78-5.06-3.57,0-6.49,1.18-7.02,4.46-.15.9-.16,1.7.05,2.71.87,4.1,8.01,5.29,9.04,7.89h0Z"/>
        <path id="path26" class="cls-1" d="M109.94,29.53c1.41,0,1.85-.97,1.94-1.47.04-.22.05-.51.05-.78v-15.01h5.13v14.55c.01.37-.03,1.14-.04,1.33-.36,3.79-3.35,5.02-7.08,5.02s-6.73-1.23-7.08-5.02c-.02-.19-.05-.96-.04-1.33v-14.55h5.13v15.01c0,.26,0,.56.05.78.11.5.54,1.47,1.96,1.47Z"/>
        <path id="path28" class="cls-1" d="M152.26,29.32c1.47,0,1.98-.93,2.08-1.47.04-.23.05-.52.05-.77v-2.94h-2.08v-2.96h7.19v5.45c0,.38-.01.66-.07,1.34-.34,3.69-3.54,5.01-7.14,5.01s-6.8-1.32-7.14-5.01c-.06-.68-.07-.96-.07-1.34v-8.54c0-.36.05-1,.09-1.34.45-3.79,3.52-5.01,7.13-5.01s6.75,1.21,7.12,5.01c.07.65.05,1.34.05,1.34v.68h-5.12v-1.14s0-.48-.07-.77c-.09-.45-.48-1.48-2.02-1.48s-1.91.97-2.02,1.48c-.06.27-.09.63-.09.96v9.28c0,.26.01.54.05.77.09.54.6,1.47,2.07,1.47Z"/>
      </g>
    </g>
  </g>
</svg>