<?xml version="1.0" encoding="UTF-8"?>
<svg id="katman_2" data-name="katman 2" xmlns="http://www.w3.org/2000/svg" viewBox="0 0 177 45">
  <defs>
    <style>
      .cls-1 {
        fill: #70bf4e;
      }

      .cls-1, .cls-2, .cls-3 {
        stroke-width: 0px;
      }

      .cls-2 {
        fill: #fff;
      }

      .cls-3 {
        fill: #979e96;
      }
    </style>
  </defs>
  <g id="katman_1" data-name="katman 1">
    <g>
      <rect class="cls-2" width="177" height="45"/>
      <g>
        <path class="cls-1" d="M30.47,5.84c.45-.27.9-.54,1.35-.72.18.45.45.9.63,1.35-.99.54-1.98.99-2.87,1.62-2.52,1.53-4.85,3.32-6.83,5.57-1.53,1.8-2.78,3.95-3.05,6.38-.09,1.44.18,2.96,1.08,4.13.81.99,2.07,1.71,3.32,1.89,1.44.27,2.96.09,4.31-.27,2.78-.72,5.3-2.07,7.72-3.5,1.44-.9,2.87-1.8,4.04-3.05.45-.54.81-1.17.81-1.89,0-.54-.36-1.08-.81-1.26-.45-.27-1.08-.36-1.62-.27-.72.18-1.44.54-2.16.9-2.07,1.08-3.86,2.52-5.93,3.59-1.26.63-2.6,1.26-4.04,1.26-.9,0-1.8-.36-2.34-1.08-.45-.54-.63-1.17-.54-1.89.09-1.08.54-2.16,1.17-2.96,1.17-1.62,2.78-2.78,4.49-3.77,2.87-1.89,6.02-3.41,9.34-4.31,1.8-.45,3.59-.72,5.39-.63,2.6.09,5.21.9,7.37,2.43,2.52,1.8,4.4,4.67,4.58,7.81.27,2.6-.54,5.21-1.71,7.55-.9,1.8-2.16,3.41-3.5,4.85-1.08,1.17-2.25,2.25-3.41,3.23-1.53,1.35-3.23,2.52-4.94,3.59s-3.59,1.98-5.48,2.78c-.54.27-1.17.54-1.71.72-.36-1.62-.9-3.23-1.26-4.85,1.53-.72,3.05-1.35,4.58-2.16,1.71-.9,3.32-2.07,4.85-3.23,1.35-1.08,2.6-2.16,3.77-3.41,1.98-2.07,3.59-4.76,3.95-7.64.09-1.08.09-2.07-.18-3.14-.63-2.16-2.16-4.04-4.22-5.12-1.71-.9-3.68-1.26-5.57-1.08-2.78.18-5.39,1.26-7.81,2.52-1.17.63-2.25,1.26-3.32,1.98-1.08.63-2.07,1.35-2.87,2.34-.36.45-.63.99-.63,1.53,0,.36.27.81.63.9.63.27,1.35,0,1.98-.27,2.96-1.44,5.48-3.68,8.62-4.76,1.53-.54,3.32-.63,4.85,0,1.26.54,2.25,1.71,2.52,3.05.09.81.09,1.62-.18,2.34-.45,1.17-1.17,2.16-2.07,3.05-1.08,1.08-2.34,1.98-3.59,2.78-1.8.99-3.5,2.16-5.39,2.96-1.62.72-3.41,1.35-5.12,1.8-1.98.54-4.04.63-6.02.18-1.98-.45-3.59-1.53-4.49-3.05-.81-1.26-1.17-2.78-1.17-4.22.09-1.71.45-3.41,1.17-4.94,1.26-2.6,3.14-4.94,5.39-6.83,2.16-1.89,4.49-3.5,7.01-4.85l-.09.09Z"/>
        <path class="cls-3" d="M51.13,18.23v-1.62c.09.54.09,1.08,0,1.62ZM64.97,17.96c1.08-.63,2.34-.63,3.5-.36.63.09,1.17.54,1.62.99-.36.36-.72.72-1.17,1.08-.72-.99-2.25-1.17-3.23-.54-.63.45-.81,1.44-.36,2.07.45.54,1.17.72,1.89.99.81.18,1.71.45,2.34,1.17.63.63.72,1.53.63,2.34-.09.9-.63,1.71-1.44,2.16-.81.45-1.71.63-2.6.54-1.08-.09-2.16-.54-2.78-1.44.36-.36.81-.72,1.17-.99.81,1.17,2.6,1.53,3.68.63.63-.45.81-1.44.27-2.07-.54-.54-1.35-.72-2.07-.9-.81-.27-1.62-.63-2.16-1.35-.45-.54-.54-1.35-.54-2.07.09-.9.63-1.62,1.35-2.07l-.09-.18ZM110.15,17.96c1.17-.63,2.6-.72,3.86-.45.99.18,1.89.54,2.52,1.26-.36.36-.63.72-.99,1.08-1.44-1.35-3.95-1.53-5.39-.09-1.53,1.35-1.71,3.86-.63,5.48.63.9,1.53,1.53,2.6,1.71,1.08.09,2.16,0,3.14-.45v-2.87h-2.25v-1.35h3.68v4.94c0,.18-.18.27-.36.36-1.35.63-2.78.81-4.22.72-1.53-.09-2.96-.9-3.77-2.16-.9-1.26-1.17-2.87-.9-4.31.27-1.62,1.26-3.05,2.78-3.77l-.09-.09ZM77.72,17.6h6.65v1.35h-5.3v3.05h4.85v1.35h-4.85c0,1.08-.09,2.16,0,3.23.36.09.81,0,1.17,0h4.31v1.35h-6.92v-10.33h.09ZM95.42,17.6h1.26c1.44,3.41,2.96,6.83,4.4,10.33-.54,0-1.08.09-1.62,0-.36-.81-.72-1.71-1.08-2.52h-4.85c-.36.81-.63,1.71-.99,2.52h-1.62c1.44-3.41,3.05-6.92,4.49-10.33ZM128.02,17.6h1.26c1.44,3.41,2.96,6.83,4.4,10.33-.54,0-1.08.09-1.62,0-.45-.81-.72-1.71-1.08-2.52h-4.85c-.36.81-.63,1.71-.99,2.52-.54.09-1.08,0-1.62,0,1.53-3.41,3.05-6.92,4.58-10.33h-.09ZM137.99,17.6h8.08v1.35h-3.32v8.98h-1.44v-8.98h-3.32v-1.35ZM153.08,17.6h6.65v1.35h-5.21v3.05h4.94v1.35h-4.94v3.23h5.48v1.35h-6.92v-10.33Z"/>
        <path class="cls-2" d="M94.07,24.16c.63-1.53,1.26-3.14,1.98-4.67.63,1.53,1.26,3.14,1.89,4.67-1.26,0-2.6,0-3.86,0ZM126.68,24.16c.63-1.53,1.26-3.14,1.98-4.67.63,1.53,1.26,3.14,1.89,4.67-1.26,0-2.6,0-3.86,0Z"/>
      </g>
    </g>
  </g>
</svg>