<?xml version="1.0" encoding="UTF-8"?>
<svg id="katman_2" data-name="katman 2" xmlns="http://www.w3.org/2000/svg" xmlns:xlink="http://www.w3.org/1999/xlink" viewBox="0 0 177 45">
  <defs>
    <style>
      .cls-1 {
        fill: none;
      }

      .cls-1, .cls-2, .cls-3 {
        stroke-width: 0px;
      }

      .cls-4 {
        clip-path: url(#clippath);
      }

      .cls-2 {
        fill: #fff;
      }

      .cls-3 {
        fill: #1761ab;
        fill-rule: evenodd;
      }
    </style>
    <clipPath id="clippath">
      <rect class="cls-1" x="16.12" y="8.32" width="144.75" height="28.35"/>
    </clipPath>
  </defs>
  <g id="katman_1" data-name="katman 1">
    <g>
      <rect class="cls-2" width="177" height="45"/>
      <g class="cls-4">
        <path class="cls-3" d="M62.52,16.89l-1.11,3.37h-4.11l-3.1,9.46h-4.15l3.1-9.46h-4.24l1.11-3.37h12.49ZM74.71,16.89l-1.01,3.07h-6.52l-.55,1.71h5.49l-.97,2.94h-5.49l-.64,1.98h6.77l-1.02,3.12h-10.93l4.21-12.83h10.66ZM84.09,26.31l-1.11,3.41h-10.16l4.21-12.83h4.15l-3.09,9.42h6.01ZM99.17,16.89l-1.11,3.37h-4.11l-3.1,9.46h-4.15l3.1-9.46h-4.24l1.11-3.37h12.49ZM111.94,21.76c-.06.38-.11.65-.15.82s-.12.41-.23.73c-.7,2.08-1.85,3.73-3.45,4.93s-3.45,1.81-5.55,1.81c-1.81,0-3.14-.47-4.01-1.4-.87-.93-1.18-2.22-.93-3.85.07-.43.19-.93.37-1.5.68-2.05,1.84-3.69,3.46-4.92s3.47-1.85,5.54-1.85c1.81,0,3.14.46,4.02,1.38.87.92,1.18,2.2.93,3.83ZM107.72,22.06c.11-.7.05-1.24-.19-1.61-.28-.45-.81-.68-1.58-.68-.98,0-1.8.36-2.46,1.07-.52.57-.95,1.39-1.31,2.46-.07.2-.13.41-.19.62-.06.21-.1.42-.13.63-.11.7-.05,1.24.18,1.61.28.45.81.68,1.58.68.97,0,1.78-.36,2.44-1.07.53-.57.97-1.39,1.33-2.46.16-.5.27-.92.32-1.25ZM128.04,16.89l-4.21,12.83h-3.93l-1.82-5.92s-.07-.42-.2-1.14c-.04-.22-.09-.45-.14-.7l-.03.21c-.07.48-.2.99-.38,1.54l-1.96,6.01h-3.93l4.21-12.83h3.93l1.8,5.96c.04.12.07.25.08.4.01.15.03.29.04.44l.22,1,.03-.22c.07-.45.19-.96.38-1.53l1.98-6.05h3.93ZM134.93,16.89l-4.21,12.83h-4.24l4.21-12.83h4.24ZM151.08,16.89l-6.61,4.73,3.05,8.1h-5.1l-1.89-5.14-1.72,1.05-1.34,4.09h-4.09l4.21-12.83h4.09l-1.39,4.25,5.8-4.25h4.99ZM160.89,29.72h-4.11l.03-1.7h-4.81l-1.1,1.7h-4.06l9.12-12.83h4.2l.73,12.83ZM156.88,25.33l-.13-4.44-3.03,4.44h3.16ZM26.28,32.31h0s-9.83-9.83-9.83-9.83h.01s0-.02,0-.02l9.68-9.97h0s4.05-4.18,4.05-4.18l4.17,4.04,3.72-3.84,4.1,3.98,4-4.12,4.18,4.05-4.06,4.18-3.39-3.29-8.94,9.22,9.08,9.07,3.34-3.34,4.12,4.12-4.12,4.12-4.12-4.12h0s-9.83-9.83-9.83-9.83h.01s0-.02,0-.02l5.68-5.85-3.32-3.22-8.94,9.21,9.08,9.08,3.34-3.34,4.12,4.12-4.12,4.12-4.05-4.05-3.84,3.84-4.12-4.12ZM30.31,16.53l-3.39-3.29-8.94,9.21,9.07,9.08,3.07-3.07-5.77-5.77h.01s0-.02,0-.02l5.96-6.14Z"/>
      </g>
    </g>
  </g>
</svg>