<?xml version="1.0" encoding="UTF-8"?>
<svg id="katman_2" data-name="katman 2" xmlns="http://www.w3.org/2000/svg" viewBox="0 0 177 45">
  <defs>
    <style>
      .cls-1 {
        fill: #279eda;
      }

      .cls-1, .cls-2 {
        stroke-width: 0px;
      }

      .cls-2 {
        fill: #fff;
      }
    </style>
  </defs>
  <g id="katman_1" data-name="katman 1">
    <g>
      <rect class="cls-2" width="177" height="45"/>
      <g>
        <g>
          <path class="cls-1" d="M32.48,4.71v14.24c0,5.5-6.07,5.65-6.07,5.65,0,0-6.07-.15-6.07-5.65V4.71s-.29-2.47-3.7-2.47v17.04s.61,8.54,9.78,8.54,9.78-8.54,9.78-8.54V2.24c-3.42,0-3.7,2.47-3.7,2.47h0Z"/>
          <path class="cls-1" d="M117.19,4.71v14.24c0,5.5-6.07,5.65-6.07,5.65,0,0-6.08-.15-6.08-5.65V4.71s-.29-2.47-3.7-2.47v17.04s.62,8.54,9.78,8.54,9.78-8.54,9.78-8.54V2.24c-3.42,0-3.7,2.47-3.7,2.47h0Z"/>
          <path class="cls-1" d="M69.73,19.29V2.24c-3.42,0-3.7,2.47-3.7,2.47v22.81h3.7v-8.23Z"/>
          <path class="cls-1" d="M131.1,19.29V2.24c-3.42,0-3.7,2.47-3.7,2.47v22.81h3.7v-8.23Z"/>
          <path class="cls-1" d="M159.86,19.29V2.24c-3.42,0-3.7,2.47-3.7,2.47v22.81h3.7v-8.23Z"/>
          <path class="cls-1" d="M55.68,14.5s3.56-1.66,3.56-5.74-3.65-6.51-7.17-6.51h-9.47v25.28h12.11s5.24-1.4,5.24-6.19-2.8-6.83-4.27-6.83h0ZM46.14,5.57h5.65c.99,0,3.75.28,3.75,3.8s-3.7,3.7-3.7,3.7h-5.7v-7.5ZM52.78,24.53h-6.64v-8.47h6.79c.56,0,3.48.5,3.48,4.24s-3.63,4.24-3.63,4.24h0Z"/>
          <path class="cls-1" d="M97.28,24.24h-4.56s3.63-3.42,3.63-9.04-2.54-12.96-11.2-12.96c0,0-10.06-.64-10.82,12.64,0,12.99,10.82,12.64,10.82,12.64,3.13-.5,6.07-.41,8.44-.41h5.89s-.25-2.87-2.21-2.87h0ZM85.42,24.65c-4.87,0-7.19-4.31-7.19-9.61s2.28-9.61,7.19-9.61,7.19,4.3,7.19,9.61-2.32,9.61-7.19,9.61h0Z"/>
          <rect class="cls-1" x="134.76" y="2.24" width="18.26" height="3.17"/>
          <rect class="cls-1" x="142.31" y="2.24" width="3.53" height="25.28"/>
        </g>
        <g>
          <path class="cls-1" d="M17.53,35.16h1.37l3.37,5.44h.02v-5.44h1.23v7.39h-1.37l-3.36-5.43h-.03v5.43h-1.23v-7.39h0Z"/>
          <path class="cls-1" d="M37.08,35.16h5.32v1.12h-4.03v1.94h3.72v1.05h-3.72v2.16h4.1v1.12h-5.39v-7.39h0Z"/>
          <path class="cls-1" d="M55.25,35.16h5.98v1.12h-2.35v6.27h-1.29v-6.27h-2.34v-1.12h0Z"/>
          <path class="cls-1" d="M74.01,35.16h1.32l1.33,5.65h.02l1.49-5.65h1.32l1.45,5.65h.02l1.38-5.65h1.32l-2.04,7.39h-1.32l-1.48-5.65h-.02l-1.51,5.65h-1.33l-1.95-7.39h0Z"/>
          <path class="cls-1" d="M102.87,38.85c0,2.11-1.32,3.87-3.54,3.87s-3.54-1.76-3.54-3.87,1.32-3.87,3.54-3.87,3.54,1.76,3.54,3.87ZM97.08,38.85c0,1.42.66,2.82,2.25,2.82s2.25-1.39,2.25-2.82-.66-2.82-2.25-2.82-2.25,1.4-2.25,2.82h0Z"/>
          <path class="cls-1" d="M116.42,35.19h3.53c1.61,0,2.44.75,2.44,2,0,1.42-.98,1.78-1.22,1.86v.02c.45.06,1.1.39,1.1,1.56,0,.86.12,1.64.4,1.95h-1.39c-.2-.32-.2-.72-.2-1.09,0-1.36-.28-1.96-1.47-1.96h-1.9v3.04h-1.29v-7.39h0ZM117.71,38.56h2.12c.82,0,1.26-.4,1.26-1.18,0-.94-.61-1.13-1.28-1.13h-2.1v2.31h0Z"/>
          <path class="cls-1" d="M135.77,35.19h1.29v3.36l3.29-3.36h1.59l-2.95,2.95,3.16,4.44h-1.61l-2.42-3.53-1.05,1.04v2.48h-1.29v-7.39h0Z"/>
          <path class="cls-1" d="M155.65,40.12c0,1.14.84,1.58,1.87,1.58,1.14,0,1.56-.56,1.56-1.12s-.31-.8-.61-.91c-.52-.2-1.19-.33-2.2-.61-1.26-.34-1.63-1.11-1.63-1.87,0-1.48,1.37-2.17,2.7-2.17,1.54,0,2.83.82,2.83,2.36h-1.29c-.06-.95-.7-1.3-1.59-1.3-.6,0-1.36.22-1.36.96,0,.52.35.81.88.95.11.03,1.75.46,2.13.57.97.29,1.44,1.12,1.44,1.88,0,1.66-1.47,2.32-2.94,2.32-1.69,0-3.05-.81-3.08-2.64h1.29Z"/>
        </g>
      </g>
    </g>
  </g>
</svg>