<?xml version="1.0" encoding="UTF-8"?>
<svg id="katman_2" data-name="katman 2" xmlns="http://www.w3.org/2000/svg" viewBox="0 0 177 45">
  <defs>
    <style>
      .cls-1 {
        fill: #000;
      }

      .cls-1, .cls-2 {
        stroke-width: 0px;
      }

      .cls-2 {
        fill: #fff;
      }
    </style>
  </defs>
  <g id="katman_1" data-name="katman 1">
    <g>
      <rect class="cls-2" width="177" height="45"/>
      <g>
        <path class="cls-1" d="M50.55,23.11l-3.02-3.02v8.55h3.02v-5.53ZM38.46,14h7.36l-3.01-3.01h-.01s-3.86-.01-3.86-.01c2.74-.23,4.77-2.64,4.54-5.37-.22-2.6-2.4-4.58-5.01-4.56v9.95h0L30.19,2.76c-.92.47-1.78,1.04-2.58,1.7l7.82,7.79v17.12l6.05,6.04v-4.27l-3.02-3.02v-14.11Z"/>
        <path class="cls-1" d="M41.49,14.02v14.59s3,0,3,0v-11.55s-3-3.04-3-3.04ZM51.85,20.08l-3.02-3.02h-4.32l3.02,3.02h4.32ZM32.42,26.52v-13l-6.94-6.94c-.65.8-1.22,1.66-1.7,2.57l5.62,5.62v4.28l-6.82-6.82c-.32,1.2-.5,2.46-.51,3.76l10.36,10.53ZM22.12,20.31v4.27l19.37,19.37v-4.27l-19.37-19.37ZM56.6,24.82h-3.03v3.82h-3.02c-.07,2.75,2.09,5.04,4.84,5.11,2.75.07,5.04-2.09,5.11-4.84,0-.09,0-.18,0-.27l-3.91-3.82ZM81.21,28.71l-2.27,4.31h-14.12l9.18-17.64h-8.13l2.27-4.31h14.12l-9.19,17.64h8.13ZM89.41,19.85h7.24v4.32h-7.24v4.54h7.24v4.31h-12.57V11.06h12.57v4.31h-7.24v4.47ZM106.76,11.06c2.8,0,4.41.3,5.6,1.05,1.51.92,2.43,2.8,2.43,4.91,0,1.55-.49,2.83-1.48,3.82-.62.66-1.12.95-2.3,1.28,1.35.29,1.94.59,2.63,1.25.98.92,1.48,2.21,1.48,3.82,0,2.04-.82,3.85-2.24,4.8-1.09.72-2.41,1.02-4.64,1.02h-8.99V11.06h7.5ZM104.59,20.15h1.31c2.44,0,3.46-.76,3.46-2.57s-1.02-2.53-3.52-2.53h-1.25v5.1ZM104.59,29.2h1.94c2.24,0,3.19-.76,3.19-2.53,0-1.05-.39-1.81-1.18-2.24-.59-.33-1.12-.39-2.73-.39h-1.22v5.17ZM122.53,33.02h-5.33V11.06h7.11c2.89,0,5,.53,6.45,1.65,1.52,1.19,2.37,3.16,2.37,5.56,0,3.35-1.41,5.56-4.25,6.68l4.84,8.06h-6.38l-4.8-8.49v8.49ZM124.24,21.53c2.17,0,3.49-1.11,3.49-3.03,0-1.81-1.28-3.06-3.16-3.06h-2.04v6.08h1.71ZM149.16,33.02h5.78l-7.2-21.95h-6.78l-7.24,21.95h5.62l1.36-4.31h7.11l1.35,4.32ZM142.04,24.38l2.21-7.03,2.2,7.03h-4.41Z"/>
      </g>
    </g>
  </g>
</svg>